<?xml version="1.0" encoding="UTF-8"?>
<svg id="_图层_1" xmlns="http://www.w3.org/2000/svg" version="1.1" viewBox="0 0 227.56 14.18">
  <!-- Generator: Adobe Illustrator 30.2.1, SVG Export Plug-In . SVG Version: 2.1.1 Build 1)  -->
  <defs>
    <style>
      .st0 {
        fill: #231815;
      }
    </style>
  </defs>
  <path class="st0" d="M51.06,7.99c0-1.02.53-1.67,1.43-1.67.62,0,1,.3,1.19.74l-.4.2c-.12-.33-.4-.52-.79-.52-.61,0-.92.41-.92.99v.53c0,.59.31.99.92.99.4,0,.69-.2.88-.56l.34.23c-.21.46-.62.76-1.22.76-.9,0-1.43-.65-1.43-1.68h0Z"/>
  <path class="st0" d="M54.14,7.99c0-1.02.59-1.68,1.44-1.68s1.44.66,1.44,1.68-.59,1.68-1.44,1.68-1.44-.66-1.44-1.68ZM56.51,8.22v-.46c0-.69-.38-1.03-.94-1.03s-.93.34-.93,1.03v.46c0,.69.38,1.03.93,1.03s.94-.34.94-1.03Z"/>
  <path class="st0" d="M57.86,10.83v-4.45h.47v.52h.02c.17-.4.49-.59.95-.59.79,0,1.3.65,1.3,1.68s-.5,1.68-1.3,1.68c-.46,0-.76-.2-.95-.59h-.02v1.76h-.47ZM60.09,8.25v-.53c0-.59-.35-.98-.92-.98-.46,0-.84.26-.84.63v1.2c0,.43.38.67.84.67.56,0,.92-.39.92-.99h0Z"/>
  <path class="st0" d="M61.44,10.83v-.41h.51l.25-.71-1.2-3.32h.48l.79,2.23.14.49h.04l.16-.49.79-2.23h.47l-1.44,3.97c-.14.37-.27.48-.72.48h-.27Z"/>
  <path class="st0" d="M64.52,9.59v-3.2h.47v.59h.03c.11-.31.4-.59.93-.59h.2v.47h-.3c-.53,0-.86.24-.86.55v2.18h-.47,0Z"/>
  <path class="st0" d="M66.74,5.34v-.08c0-.16.09-.27.29-.27s.29.11.29.27v.08c0,.16-.09.27-.29.27s-.29-.11-.29-.27ZM66.79,9.59v-3.2h.47v3.2h-.47Z"/>
  <path class="st0" d="M68.06,10.12c0-.35.2-.54.51-.63v-.07c-.18-.09-.28-.23-.28-.45,0-.32.23-.47.55-.55v-.03c-.38-.18-.6-.53-.6-.98,0-.65.47-1.1,1.2-1.1.23,0,.44.04.62.12v-.07c0-.24.1-.41.36-.41h.49v.41h-.61v.22c.23.2.36.48.36.82,0,.66-.48,1.11-1.21,1.11-.11,0-.21-.01-.31-.04-.22.07-.43.17-.43.37s.2.24.5.24h.69c.79,0,1.13.33,1.13.85,0,.66-.52.96-1.54.96s-1.42-.29-1.42-.79v.02h-.01ZM69.68,10.53c.57,0,.9-.18.9-.54,0-.27-.17-.44-.68-.44h-1.07c-.22.1-.33.25-.33.46,0,.3.2.53.72.53h.46ZM70.16,7.5v-.17c0-.43-.27-.63-.71-.63s-.7.2-.7.63v.17c0,.44.27.64.7.64s.71-.2.71-.64Z"/>
  <path class="st0" d="M71.61,9.59v-4.6h.47v1.91h.02c.15-.36.43-.59.91-.59.66,0,1.07.44,1.07,1.21v2.06h-.47v-1.97c0-.59-.25-.88-.73-.88-.41,0-.8.2-.8.63v2.22h-.47,0Z"/>
  <path class="st0" d="M75.81,9.59c-.33,0-.5-.21-.5-.51v-2.28h-.54v-.42h.31c.21,0,.27-.07.27-.28v-.61h.43v.89h.7v.42h-.7v2.37h.66v.41h-.63Z"/>
  <path class="st0" d="M78.56,7.42c0-1.38.91-2.24,2.07-2.24s2.07.86,2.07,2.24-.91,2.24-2.07,2.24-2.07-.86-2.07-2.24ZM82.29,7.61v-.37c0-.97-.69-1.69-1.67-1.69s-1.66.72-1.66,1.69v.37c0,.98.69,1.7,1.66,1.7s1.67-.72,1.67-1.7ZM79.65,7.42c0-.73.38-1.2,1.02-1.2.41,0,.67.21.82.53l-.34.19c-.09-.22-.24-.36-.48-.36-.37,0-.57.26-.57.64v.39c0,.38.2.64.57.64.26,0,.41-.15.53-.38l.33.21c-.14.31-.43.54-.86.54-.64,0-1.02-.47-1.02-1.2h0Z"/>
  <path class="st0" d="M85.68,9.59l-1.06-4.34h.53l.5,2.2.34,1.53h.01l.38-1.53.58-2.2h.58l.56,2.2.38,1.53h.02l.35-1.53.53-2.2h.52l-1.11,4.34h-.56l-.6-2.27-.37-1.51h-.01l-.39,1.51-.61,2.27h-.57,0Z"/>
  <path class="st0" d="M90.58,5.25h.5v2.69c0,.85.27,1.28,1.05,1.28s1.06-.44,1.06-1.28v-2.69h.5v2.57c0,1.26-.41,1.85-1.56,1.85s-1.55-.59-1.55-1.85v-2.57Z"/>
  <path class="st0" d="M94.82,9.59v-4.34h.5v2.33h.02l.63-.76,1.33-1.57h.61l-1.62,1.86,1.73,2.48h-.62l-1.46-2.15-.63.7v1.45h-.5.01Z"/>
  <path class="st0" d="M98.71,5.25h.5v2.69c0,.85.27,1.28,1.05,1.28s1.06-.44,1.06-1.28v-2.69h.5v2.57c0,1.26-.41,1.85-1.56,1.85s-1.55-.59-1.55-1.85v-2.57Z"/>
  <path class="st0" d="M103.45,9.59l-.86-3.2h.46l.37,1.47.33,1.33h.01l.37-1.33.43-1.47h.43l.44,1.47.38,1.33h.01l.31-1.33.38-1.47h.45l-.86,3.2h-.59l-.47-1.61-.27-.93h-.01l-.26.93-.47,1.61h-.58Z"/>
  <path class="st0" d="M107.44,7.99c0-1.02.59-1.68,1.44-1.68s1.44.66,1.44,1.68-.59,1.68-1.44,1.68-1.44-.66-1.44-1.68ZM109.81,8.22v-.46c0-.69-.38-1.03-.94-1.03s-.93.34-.93,1.03v.46c0,.69.38,1.03.93,1.03s.94-.34.94-1.03Z"/>
  <path class="st0" d="M111.15,9.59v-3.2h.47v.59h.03c.11-.31.4-.59.93-.59h.2v.47h-.3c-.53,0-.86.24-.86.55v2.18h-.47,0Z"/>
  <path class="st0" d="M113.42,9.59v-4.6h.48v2.94h.02l.49-.54.94-1h.57l-1.2,1.27,1.32,1.94h-.57l-1.09-1.64-.48.5v1.14h-.48Z"/>
  <path class="st0" d="M116.3,7.96v-.51h1.62v.51h-1.62Z"/>
  <path class="st0" d="M119.99,9.2v-1.31h-1.24v-.4h1.24v-1.31h.45v1.31h1.24v.4h-1.24v1.31h-.45Z"/>
  <path class="st0" d="M125.17,5.25v.44h-1.91l-.12,1.68h.04c.21-.29.44-.48.89-.48.74,0,1.29.5,1.29,1.34s-.55,1.43-1.45,1.43c-.72,0-1.09-.36-1.36-.73l.37-.28c.23.34.46.57.98.57.6,0,.92-.34.92-.92v-.07c0-.59-.31-.92-.92-.92-.4,0-.6.17-.79.38l-.42-.07.15-2.38h2.33,0Z"/>
  <path class="st0" d="M127.55,8.7c0-.6.43-.94,1.36-.94h.64v-.32c0-.47-.25-.72-.77-.72-.39,0-.65.19-.83.49l-.28-.27c.18-.34.56-.63,1.14-.63.77,0,1.22.4,1.22,1.08v1.79h.37v.41h-.25c-.37,0-.52-.22-.56-.52h-.03c-.14.39-.49.6-.94.6-.67,0-1.07-.37-1.07-.97ZM129.55,8.65v-.54h-.67c-.57,0-.83.18-.83.5v.13c0,.34.25.52.65.52.49,0,.85-.27.85-.61Z"/>
  <path class="st0" d="M132.07,9.59h-.43c-.33,0-.52-.21-.52-.5v-4.1h.47v4.19h.47v.41h0Z"/>
  <path class="st0" d="M133.72,9.59h-.43c-.33,0-.52-.21-.52-.5v-4.1h.47v4.19h.47v.41h0Z"/>
  <path class="st0" d="M135.92,9.59v-3.2h.47v.59h.03c.11-.31.4-.59.93-.59h.2v.47h-.3c-.53,0-.86.24-.86.55v2.18h-.47,0Z"/>
  <path class="st0" d="M138.14,5.34v-.08c0-.16.09-.27.29-.27s.29.11.29.27v.08c0,.16-.09.27-.29.27s-.29-.11-.29-.27ZM138.19,9.59v-3.2h.47v3.2h-.47Z"/>
  <path class="st0" d="M139.46,10.12c0-.35.2-.54.51-.63v-.07c-.18-.09-.28-.23-.28-.45,0-.32.23-.47.55-.55v-.03c-.38-.18-.6-.53-.6-.98,0-.65.47-1.1,1.2-1.1.23,0,.44.04.62.12v-.07c0-.24.1-.41.36-.41h.49v.41h-.61v.22c.22.2.36.48.36.82,0,.66-.48,1.11-1.21,1.11-.11,0-.21-.01-.31-.04-.22.07-.43.17-.43.37s.2.24.5.24h.69c.79,0,1.13.33,1.13.85,0,.66-.52.96-1.54.96s-1.42-.29-1.42-.79v.02h-.01ZM141.08,10.53c.57,0,.9-.18.9-.54,0-.27-.17-.44-.68-.44h-1.07c-.22.1-.33.25-.33.46,0,.3.2.53.72.53h.46ZM141.56,7.5v-.17c0-.43-.27-.63-.71-.63s-.71.2-.71.63v.17c0,.44.27.64.71.64s.71-.2.71-.64Z"/>
  <path class="st0" d="M143.01,9.59v-4.6h.47v1.91h.02c.15-.36.43-.59.91-.59.66,0,1.07.44,1.07,1.21v2.06h-.47v-1.97c0-.59-.25-.88-.73-.88-.41,0-.8.2-.8.63v2.22h-.47Z"/>
  <path class="st0" d="M147.21,9.59c-.33,0-.5-.21-.5-.51v-2.28h-.54v-.42h.31c.21,0,.27-.07.27-.28v-.61h.43v.89h.71v.42h-.71v2.37h.66v.41h-.63Z"/>
  <path class="st0" d="M148.39,9.04l.34-.28c.25.33.54.5.95.5.44,0,.7-.2.7-.54,0-.27-.15-.46-.59-.52l-.25-.04c-.59-.08-1.02-.33-1.02-.92,0-.63.49-.94,1.14-.94.51,0,.86.2,1.11.52l-.31.28c-.15-.2-.42-.4-.83-.4s-.65.2-.65.51.22.44.63.51l.25.04c.7.1.98.41.98.9,0,.62-.46,1-1.18,1-.59,0-.98-.24-1.26-.63h-.01Z"/>
  <path class="st0" d="M153.18,9.59v-3.2h.47v.59h.03c.11-.31.4-.59.93-.59h.2v.47h-.3c-.53,0-.86.24-.86.55v2.18h-.47,0Z"/>
  <path class="st0" d="M155.18,7.99c0-1.02.57-1.67,1.43-1.67s1.37.65,1.37,1.56v.22h-2.3v.15c0,.58.36,1,.96,1,.41,0,.73-.21.9-.57l.34.24c-.2.44-.66.74-1.26.74-.86,0-1.43-.66-1.43-1.68h0ZM155.68,7.74h1.79v-.06c0-.59-.35-.97-.86-.97-.54,0-.93.41-.93.99v.04Z"/>
  <path class="st0" d="M158.52,9.04l.34-.28c.25.33.54.5.95.5.44,0,.7-.2.7-.54,0-.27-.15-.46-.59-.52l-.25-.04c-.59-.08-1.02-.33-1.02-.92,0-.63.49-.94,1.14-.94.51,0,.86.2,1.11.52l-.31.28c-.15-.2-.42-.4-.83-.4s-.65.2-.65.51.22.44.63.51l.25.04c.7.1.98.41.98.9,0,.62-.46,1-1.18,1-.59,0-.98-.24-1.26-.63h-.01Z"/>
  <path class="st0" d="M161.6,7.99c0-1.02.57-1.67,1.43-1.67s1.37.65,1.37,1.56v.22h-2.3v.15c0,.58.36,1,.96,1,.41,0,.73-.21.9-.57l.34.24c-.2.44-.66.74-1.26.74-.86,0-1.43-.66-1.43-1.68h0ZM162.1,7.74h1.79v-.06c0-.59-.35-.97-.86-.97-.54,0-.93.41-.93.99v.04Z"/>
  <path class="st0" d="M165.24,9.59v-3.2h.47v.59h.03c.11-.31.4-.59.93-.59h.2v.47h-.3c-.53,0-.86.24-.86.55v2.18h-.47,0Z"/>
  <path class="st0" d="M168.28,9.59l-1.13-3.2h.48l.59,1.66.33,1.04h.03l.33-1.04.6-1.66h.46l-1.13,3.2h-.56Z"/>
  <path class="st0" d="M170.34,7.99c0-1.02.57-1.67,1.43-1.67s1.37.65,1.37,1.56v.22h-2.3v.15c0,.58.36,1,.96,1,.41,0,.73-.21.9-.57l.34.24c-.2.44-.66.74-1.26.74-.86,0-1.43-.66-1.43-1.68h0ZM170.84,7.74h1.79v-.06c0-.59-.35-.97-.86-.97-.54,0-.93.41-.93.99v.04Z"/>
  <path class="st0" d="M173.76,7.99c0-1.02.5-1.68,1.3-1.68.46,0,.78.2.95.59h.02v-1.91h.47v4.6h-.47v-.51h-.02c-.19.39-.49.59-.95.59-.79,0-1.3-.65-1.3-1.68ZM176.03,8.57v-1.2c0-.37-.38-.63-.84-.63-.56,0-.92.39-.92.98v.53c0,.6.35.99.92.99.46,0,.84-.24.84-.67h0Z"/>
</svg>