<?xml version="1.0" encoding="utf-8"?>
<svg version="1.1" id="图层_1" xmlns="http://www.w3.org/2000/svg" xmlns:xlink="http://www.w3.org/1999/xlink" x="0px" y="0px"
	 viewBox="0 0 343 525" style="enable-background:new 0 0 343 525;" xml:space="preserve">
<style type="text/css">
	.st0{fill:#040000;}
</style>
<path class="st0" d="M319.4,102.87c-1.53,4.13-5.49,6.88-9.86,6.88c-1.1,0-2.18-0.18-3.23-0.51c-0.1,11.61-0.43,23.2-0.77,34.56
	c-0.38,13.22-0.79,26.88-0.79,40.16v46.92c3.05,1.13,5.51,3.63,6.46,6.84c1.21,4.03-0.14,8.21-3.08,10.84
	c-0.8,1.57-1.97,2.88-3.38,3.86v1.95c0,9.69-0.38,19.47-0.75,28.92c-0.62,15.89-1.26,32.31-0.03,48c0.53,6.86,0.75,13.76,0.96,20.43
	c0.27,8.5,0.54,17.29,1.49,25.59c0.46,3.97,0.6,8.02,0.74,11.93c0.21,6.2,0.44,12.6,1.97,17.47c1.74,5.53-1.34,11.44-6.86,13.18
	c-1.02,0.32-2.08,0.48-3.15,0.48c-4.61,0-8.63-2.95-10.02-7.35c-2.39-7.58-2.68-15.8-2.93-23.04c-0.13-3.52-0.25-7.14-0.61-10.28
	c-1.05-9.16-1.34-18.39-1.62-27.31c-0.2-6.43-0.41-13.08-0.91-19.47c-1.32-16.92-0.65-33.96-0.01-50.43
	c0.33-8.48,0.66-17.2,0.71-25.73c-3.81,1.43-7.09,3.21-10.97,6.27c0.42,2.75,0.81,5.61,1.14,8.35c0.37,2.96,0.35,5.87,0.33,8.43
	c-0.01,2.19-0.03,4.44,0.22,6.12c0.79,5.26,1.76,9.96,2.69,12.88c1.91,6.06,2.02,11.67,2.13,17.1l0.01,0.44
	c0.11,5.44-0.51,10.56-1.11,15.52l-0.09,0.67c-0.24,2.03-0.36,4.28-0.47,6.45c-0.14,2.66-0.29,5.66-0.7,8.63
	c-0.09,0.67-0.03,1.94,0.02,3.07c0.11,2.32,0.25,5.21-0.39,8.35c-0.53,2.61-1.42,4.9-2.14,6.75c-0.49,1.24-0.98,2.51-1.14,3.34
	c-0.22,1.1-0.38,2.57-0.56,4.13c-0.6,5.39-1.44,12.78-5.96,18.54c-2.7,3.43-6.42,5.32-10.48,5.32c-2,0-3.58-0.44-4.62-0.74
	c-0.21-0.06-0.39-0.12-0.6-0.16c-8.63-1.55-15.2-4.53-19.53-8.83c-4.63-4.61-8.17-8.8-11.45-15.42c-0.62-1.26-1.44-2.62-2.3-4.06
	c-0.99-1.64-2.1-3.49-3.1-5.51c-0.88-1.76-1.63-3.55-2.29-5.13c-0.72-1.71-1.39-3.29-2.1-4.62c-1.7-3.17-5.92-6.62-9.64-9.66
	l-1.23-1.01c-1.32-1.09-2.65-2.22-3.96-3.39c-0.27,0.23-0.55,0.45-0.84,0.65c-1.52,8.09,1.43,21.17,3.87,31.94
	c1.75,7.71,3.4,15,3.87,21.45c0.33,4.43,0.45,8.84,0.56,13.1c0.14,4.84,0.27,9.81,0.71,14.43c0.41,4.28,0.75,8.65,1.07,12.88
	c0.33,4.23,0.67,8.54,1.06,12.66c0.13,1.35,0.49,3.73,0.88,6.24c2.3,15.01,2.88,21.63-0.65,26.77c-1.97,2.85-5.2,4.55-8.65,4.55
	c-2.14,0-4.2-0.64-5.96-1.86c-2.3-1.58-3.86-3.97-4.37-6.73c-0.35-1.91-0.18-3.84,0.49-5.61c0.06-2.97-1.1-10.55-1.62-13.93
	c-0.45-2.94-0.84-5.48-1.03-7.43c-0.41-4.31-0.75-8.71-1.08-12.96c-0.32-4.22-0.66-8.5-1.04-12.58c-0.51-5.33-0.66-10.65-0.8-15.8
	c-0.11-4.06-0.22-8.22-0.51-12.19c-0.36-4.89-1.84-11.43-3.41-18.35c-2.42-10.7-5.05-22.34-4.77-33c-1.18-1.52-1.91-3.33-2.12-5.25
	c-12.24-2.47-24.7-4.68-36.87-6.82c-3.85-0.68-7.72-1.37-11.6-2.06c-0.59,5.75-1.7,11.42-2.79,16.98
	c-1.4,7.09-2.84,14.41-2.84,20.89c0.01,6.87-0.18,13.7-0.37,20.31c-0.17,6.45-0.36,13.05-0.36,19.53c0,5.79-4.71,10.5-10.5,10.5
	c-5.79,0-10.5-4.71-10.5-10.5c0-6.75,0.19-13.5,0.37-20.02s0.37-13.22,0.36-19.81c0-8.53,1.64-16.88,3.23-24.95
	c1.11-5.64,2.23-11.4,2.63-16.8c-20.88-4.08-41.79-8.94-62.01-15.9c-2.01,9.73-2.44,20.66-2.86,31.32
	c-0.28,7.12-0.55,13.85-1.24,20.55c-0.96,9.38-0.96,18.83-0.96,28.84V390c0,7.31-0.3,14.68-0.59,21.81
	c-0.37,9.19-0.76,18.67-0.46,27.59c0.2,5.77-4.35,10.64-10.12,10.84l-0.18,0.01h-0.19c-5.7,0-10.31-4.46-10.5-10.16
	c-0.32-9.69,0.08-19.57,0.47-29.13c0.28-6.92,0.57-14.07,0.57-20.96v-0.35c0-10.58,0-20.56,1.07-31c0.62-6.04,0.87-12.44,1.14-19.21
	c0.53-13.46,1.09-27.27,4.58-40.21c-1.61-2.72-1.99-6.13-0.72-9.28c1.49-3.69,4.87-6.16,8.77-6.52
	C41,271.28,54.1,258.95,67.65,249.11c12.03-8.73,24.74-16.69,35.97-23.71c2.55-1.6,5.03-3.45,7.45-5.39
	c-0.22-0.87-0.35-1.78-0.34-2.72c0.04-5.19,3.9-9.49,8.88-10.27c1.03-7.95,3.11-15.62,5.14-23.11c1.75-6.42,3.55-13.04,4.44-19.27
	c1.19-8.27,2.16-16.78,3.1-25c0.5-4.44,1.01-8.88,1.55-13.35c0.68-5.54,1.19-11.56,1.68-17.39c0.97-11.53,1.96-23.38,4.36-34.51
	c-0.42-1.13-0.66-2.35-0.66-3.63c0-5.79,4.71-10.5,10.5-10.5c18.42,0,36.07,4.11,53.14,8.09c6.99,1.63,14.21,3.31,21.24,4.64
	c7.22,1.36,14.44,2.68,21.66,4.01l0.24,0.04c5.18,0.95,10.35,1.9,15.52,2.86c5.16,0.96,10.85,1.66,16.35,2.34
	c2.7,0.34,5.42,0.68,8.14,1.05c1.58-3.63,5.13-6.23,9.34-6.35l0.37-0.01l0.37,0.02c5.47,0.25,9.89,4.72,10.05,10.18v0.03
	c2.37,0.65,4.72,1.39,7.04,2.24C318.6,91.41,321.39,97.45,319.4,102.87z"/>
</svg>
