<?xml version="1.0" encoding="utf-8"?>
<svg version="1.1" xmlns="http://www.w3.org/2000/svg" xmlns:xlink="http://www.w3.org/1999/xlink" x="0px" y="0px"
	 viewBox="0 0 343 525" style="enable-background:new 0 0 343 525;" xml:space="preserve">
<style type="text/css">
	.st1{fill:none;stroke:#040000;stroke-linecap:round;stroke-miterlimit:10;}
	.st2{fill:none;stroke:#040000;stroke-miterlimit:10;}
</style>
<g>
	<g>
		<path class="st1" d="M226.19,286.13c0.17,0.06,0.34,0.07,0.51,0.15c0.17,0.07,0.34,0.1,0.5,0.19c0.17,0.08,0.33,0.24,0.5,0.33
			c0.16,0.09,0.33,0.14,0.49,0.24c0.16,0.1,0.32,0.2,0.48,0.31c0.16,0.11,0.31,0.28,0.47,0.4c0.15,0.12,0.3,0.3,0.44,0.42
			c0.15,0.13,0.31,0.2,0.45,0.34c0.14,0.14,0.29,0.27,0.43,0.43c0.14,0.16,0.26,0.35,0.39,0.52c0.14,0.18,0.27,0.38,0.4,0.58
			c0.13,0.2,0.24,0.41,0.36,0.62c0.12,0.21,0.23,0.42,0.34,0.64c0.11,0.22,0.26,0.4,0.37,0.62c0.11,0.23,0.19,0.47,0.3,0.7
			c0.1,0.23,0.21,0.46,0.31,0.7c0.1,0.24,0.16,0.49,0.25,0.73c0.09,0.24,0.22,0.46,0.3,0.71c0.08,0.25,0.16,0.5,0.22,0.75
			c0.06,0.25,0.08,0.5,0.13,0.76c0.05,0.25,0.08,0.5,0.11,0.75c0.03,0.25,0.02,0.49,0.03,0.73c0.01,0.25,0.06,0.52,0.05,0.75
			c-0.01,0.24-0.04,0.47-0.08,0.69c-0.04,0.21-0.06,0.45-0.12,0.64c-0.06,0.19-0.13,0.37-0.21,0.55c-0.07,0.18-0.23,0.24-0.31,0.42
			c-0.08,0.17-0.16,0.35-0.25,0.53c-0.1,0.21-0.18,0.43-0.29,0.64c-0.11,0.21-0.19,0.45-0.32,0.62c-0.13,0.18-0.29,0.26-0.46,0.36
			c-0.15,0.09-0.28,0.21-0.45,0.21c-0.17,0-0.35-0.02-0.53-0.1c-0.18-0.08-0.36-0.22-0.53-0.37c-0.17-0.15-0.36-0.31-0.51-0.54
			c-0.09-0.13-0.15-0.31-0.2-0.48c-0.05-0.18-0.08-0.39-0.08-0.57c0.01-0.3,0.01-0.61,0.05-0.9c0.03-0.28,0.09-0.56,0.15-0.81
			c0.06-0.25,0.13-0.5,0.22-0.72c0.07-0.2,0.19-0.35,0.26-0.55c0.07-0.2,0.1-0.42,0.12-0.66c0.02-0.22,0.01-0.45-0.05-0.69
			c-0.05-0.24-0.09-0.51-0.2-0.73c-0.11-0.21-0.26-0.42-0.4-0.58c-0.14-0.16-0.32-0.3-0.47-0.36"/>
		<path class="st1" d="M233.54,301.45c0.02,0.24,0.07,0.52,0.11,0.84c0.04,0.27,0.08,0.56,0.12,0.86c0.04,0.29,0.08,0.58,0.11,0.87
			c0.04,0.31,0.08,0.61,0.1,0.88c0.02,0.32,0.03,0.63-0.01,0.86c-0.05,0.28-0.18,0.46-0.31,0.63c-0.13,0.17-0.27,0.29-0.45,0.34
			c-0.17,0.05-0.35,0.12-0.54,0.05c-0.19-0.07-0.38-0.25-0.56-0.42c-0.18-0.17-0.35-0.4-0.52-0.64c-0.17-0.24-0.33-0.44-0.47-0.71
			c0.01,0.28,0.04,0.55,0.03,0.83c-0.01,0.28-0.06,0.55-0.09,0.82c-0.03,0.27-0.09,0.54-0.15,0.8c-0.06,0.26-0.16,0.48-0.24,0.72
			c-0.08,0.25-0.18,0.47-0.28,0.69c-0.08,0.18-0.13,0.45-0.25,0.58c-0.12,0.13-0.28,0.15-0.44,0.12c-0.25-0.05-0.45-0.38-0.64-0.68
			c-0.19-0.28-0.38-0.55-0.56-0.83c-0.18-0.29-0.4-0.51-0.58-0.81c-0.18-0.3-0.35-0.61-0.52-0.92c-0.17-0.3-0.34-0.64-0.44-1.01
			c-0.09-0.36-0.04-0.75,0.11-0.99"/>
		<path class="st1" d="M227.91,307.97c-0.02,0.34-0.12,0.64-0.24,0.88c-0.12,0.24-0.31,0.4-0.5,0.53c-0.19,0.13-0.38,0.3-0.6,0.32
			c-0.22,0.03-0.45-0.1-0.67-0.19c-0.23-0.1-0.46-0.15-0.67-0.33c-0.21-0.18-0.41-0.41-0.6-0.65c-0.19-0.23-0.39-0.48-0.56-0.74
			c-0.18-0.27-0.33-0.57-0.5-0.85c-0.15-0.25-0.31-0.51-0.45-0.78c-0.14-0.27-0.24-0.58-0.34-0.87c-0.1-0.3-0.18-0.6-0.21-0.93
			c-0.02-0.28-0.05-0.57-0.03-0.84c0.03-0.27,0.08-0.53,0.13-0.78c0.05-0.3,0.12-0.6,0.18-0.89c0.05-0.3,0.07-0.61,0.13-0.9
			c0.06-0.29,0.15-0.55,0.21-0.83c0.06-0.28,0.1-0.57,0.17-0.84c0.07-0.27,0.14-0.53,0.22-0.79c0.08-0.25,0.17-0.49,0.26-0.73
			c0.09-0.23,0.19-0.45,0.3-0.67c0.1-0.2,0.23-0.39,0.37-0.53c0.14-0.15,0.31-0.26,0.51-0.22c0.27,0.06,0.49,0.37,0.68,0.71
			c0.17,0.32,0.33,0.69,0.44,1.04c0.09,0.3,0.2,0.6,0.29,0.9c0.09,0.31,0.18,0.62,0.24,0.93c0.07,0.31,0.11,0.64,0.15,0.95
			c0.04,0.32,0.02,0.63,0.01,0.94"/>
		<path class="st1" d="M226.54,298.55c0.11-0.27,0.25-0.51,0.41-0.71c0.16-0.2,0.32-0.38,0.5-0.52c0.18-0.14,0.39-0.23,0.62-0.17
			c0.18,0.04,0.35,0.17,0.51,0.37c0.15,0.19,0.27,0.45,0.37,0.69c0.1,0.25,0.18,0.52,0.26,0.78c0.08,0.26,0.16,0.52,0.26,0.78"/>
		<path class="st1" d="M228.56,297.24c-0.07-0.18-0.08-0.37-0.09-0.55c-0.02-0.29-0.03-0.59,0.03-0.84
			c0.05-0.25,0.17-0.45,0.36-0.46"/>
		<path class="st1" d="M222.67,304.78c-0.19-0.27-0.42-0.52-0.64-0.75c-0.22-0.23-0.52-0.31-0.75-0.54
			c-0.23-0.23-0.45-0.5-0.66-0.76c-0.21-0.27-0.42-0.56-0.58-0.89c-0.14-0.3-0.16-0.67-0.27-0.98c-0.11-0.32-0.25-0.61-0.33-0.94
			c-0.07-0.32-0.21-0.64-0.26-0.97c-0.05-0.33-0.07-0.66-0.1-0.99c-0.03-0.32,0.01-0.64,0-0.96c-0.01-0.32,0.03-0.62,0.03-0.93
			c0-0.31-0.08-0.64-0.08-0.94c0-0.34-0.04-0.7-0.03-1.04c0.01-0.34,0.08-0.65,0.1-0.98c0.02-0.33,0.01-0.66,0.05-0.98
			c0.04-0.31,0.15-0.58,0.22-0.87c0.06-0.27,0.1-0.57,0.19-0.82c0.09-0.25,0.23-0.45,0.35-0.68c0.11-0.22,0.26-0.39,0.39-0.59
			c0.12-0.2,0.2-0.45,0.34-0.63c0.14-0.17,0.34-0.25,0.49-0.41c0.15-0.15,0.21-0.43,0.36-0.57c0.15-0.13,0.36-0.18,0.52-0.29
			c0.16-0.12,0.29-0.29,0.45-0.38c0.16-0.1,0.37-0.11,0.53-0.19c0.17-0.08,0.35-0.11,0.52-0.17c0.17-0.06,0.33-0.14,0.5-0.19
			c0.17-0.04,0.31-0.19,0.48-0.21c0.18-0.02,0.37,0.01,0.55,0.01"/>
		<path class="st1" d="M227.99,294.04c-0.19-0.01-0.38-0.01-0.58-0.08c-0.2-0.07-0.41-0.17-0.61-0.29c-0.2-0.12-0.4-0.29-0.6-0.46
			c-0.2-0.17-0.4-0.33-0.59-0.54c-0.19-0.21-0.38-0.43-0.55-0.67c-0.17-0.24-0.31-0.52-0.46-0.8"/>
		<path class="st1" d="M233.51,294.8c0.12,0.19,0.24,0.4,0.36,0.6c0.12,0.19,0.24,0.39,0.36,0.59c0.12,0.19,0.23,0.4,0.35,0.6
			c0.12,0.19,0.25,0.36,0.37,0.56c0.12,0.19,0.19,0.47,0.31,0.67c0.12,0.2,0.26,0.35,0.37,0.54c0.11,0.19,0.22,0.42,0.33,0.61
			c0.12,0.2,0.24,0.37,0.36,0.57c0.11,0.2,0.25,0.36,0.36,0.56c0.12,0.2,0.19,0.47,0.31,0.66c0.11,0.2,0.25,0.34,0.37,0.53
			c0.11,0.19,0.21,0.43,0.33,0.62c0.11,0.19,0.25,0.34,0.36,0.53c0.11,0.19,0.23,0.38,0.34,0.57c0.11,0.19,0.21,0.41,0.32,0.6
			c0.12,0.19,0.21,0.42,0.33,0.6c0.11,0.19,0.25,0.31,0.36,0.49c0.11,0.19,0.24,0.34,0.34,0.52c0.1,0.17,0.2,0.36,0.3,0.53
			c0.1,0.17,0.21,0.34,0.3,0.52c0.09,0.19,0.16,0.42,0.24,0.63c0.08,0.21,0.12,0.43,0.18,0.65c0.05,0.23,0.16,0.47,0.18,0.69
			c0.02,0.23-0.03,0.42-0.06,0.61c-0.04,0.22-0.12,0.35-0.21,0.46c-0.09,0.11-0.18,0.29-0.3,0.3c-0.12,0.01-0.27-0.03-0.4-0.1
			c-0.14-0.06-0.27-0.27-0.41-0.38c-0.13-0.1-0.26-0.18-0.39-0.31c-0.13-0.13-0.25-0.3-0.38-0.44c-0.13-0.14-0.26-0.25-0.39-0.4
			c-0.14-0.16-0.27-0.35-0.41-0.51c-0.14-0.16-0.29-0.29-0.43-0.45c-0.14-0.16-0.28-0.35-0.42-0.52c-0.14-0.17-0.3-0.26-0.45-0.43
			c-0.14-0.17-0.28-0.38-0.42-0.56c-0.15-0.18-0.29-0.33-0.44-0.51c-0.15-0.18-0.29-0.38-0.43-0.56c-0.15-0.18-0.27-0.45-0.41-0.64
			c-0.11-0.14-0.29-0.32-0.46-0.6c-0.14-0.22-0.26-0.5-0.4-0.76c-0.14-0.25-0.28-0.51-0.4-0.75c-0.16-0.31-0.29-0.58-0.35-0.79"/>
	</g>
	<g>
		<line class="st1" x1="195.84" y1="323.4" x2="181.53" y2="336.4"/>
		<g>
			<path class="st1" d="M295.64,87.44c0.87,31.92-1.39,64.48-1.39,96.51c0,23.47,0,46.94,0,70.41c0,25.88-2.76,51.99-0.75,77.74
				c1.2,15.43,0.74,31.11,2.49,46.4c1.15,10.08,0.09,21.74,3.13,31.36"/>
			<path class="st1" d="M309.54,99.25c-15.45-5.7-33.81-6.03-49.94-9.03c-12.48-2.32-24.97-4.56-37.45-6.92
				c-24.11-4.55-47.83-12.54-72.44-12.54"/>
			<path class="st1" d="M298.78,243.79c-4.75-1.59-9.66-1.22-14.61-1.51c-15.27-0.9-30.47-3.39-45.64-5.25
				c-20.44-2.51-40.34-7.01-60.47-10.98c-18.3-3.61-38.13-8.49-56.83-8.66"/>
			<path class="st1" d="M134.43,214.61c-8.78,6.22-15.95,13.88-25.24,19.69c-12.02,7.52-23.89,14.97-35.37,23.31
				c-14.71,10.68-28.98,24.55-41.88,37.31"/>
			<path class="st1" d="M301.15,240.73c-18.63,5.58-25.91,5.31-40.56,18.96"/>
			<path class="st1" d="M188.63,330.59c-52.47-12.01-108.72-16.32-159.04-36.7"/>
			<path class="st1" d="M185.85,332.04c-6.9,15.91,4.77,44.31,6.02,61.36c0.68,9.26,0.42,18.65,1.29,27.76
				c0.8,8.35,1.32,17.1,2.13,25.54c0.58,6.09,4.12,23.01,2.03,26.06"/>
			<path class="st1" d="M32.63,295.91c-7.14,19.29-5.21,43.3-7.32,63.81c-1.03,10.03-1.02,20.08-1.02,30.28
				c0,16.6-1.59,33.48-1.04,49.75"/>
			<path class="st1" d="M151.19,72.15c-4.46,17.13-4.75,37.53-6.92,55.4c-1.58,12.99-2.84,25.78-4.68,38.58
				c-2.53,17.59-10.77,34.94-10.11,52.74"/>
			<path class="st1" d="M112.35,316.51c1.47,16.11-5.85,33.58-5.85,50.06c0.01,13.41-0.73,26.53-0.73,39.83"/>
		</g>
	</g>
	<g>
		<path class="st2" d="M195.65,323.07c2.57,4.11,6.71,7.86,10.35,10.86c4.82,3.97,10.13,8.53,13.06,14
			c1.73,3.23,2.19,7.11,3.82,10.39c1.63,3.28,3.37,6.51,5,9.78c2.61,5.27,6.07,8.76,10.11,12.79c3.4,3.38,9.88,5.72,14.64,6.57
			c2.47,0.45,3.15-0.67,4.9-2.9c3.69-4.69,2.98-12.16,4.05-17.68c0.67-3.49,2.69-6.71,3.39-10.18c0.7-3.48,2.17-6.84,2.66-10.36
			c0.66-4.84-0.17-10.01,0.43-15.01c0.6-4.97,1.46-9.86,1.36-14.78c-0.1-5.02-1.03-9.74-2.53-14.5c-1.13-3.59-1.78-8.94-2.62-14.6
			c-0.71-4.75-0.17-10-0.76-14.78c-0.7-5.68-1.52-10.93-2.17-14.61"/>
	</g>
	<g>
		<path class="st2" d="M262.01,257.32c-8.03-3.38-12.22-3.01-20.83-4.53c-4.72-0.83-9.64-0.29-14.42-0.94
			c-4.76-0.65-9.39-2.16-14.17-2.65c-4.78-0.49-9.48-1.98-14.27-2.35c-4.8-0.37-9.64-0.21-14.43-0.47c-4.7-0.26-9.48-1.3-14.27-1.44
			c-4.8-0.14-9.61,1.47-14.31,1.57c-4.05,0.09-8.17-1.47-12.26-1.49c-4.09-0.02-8.08,1.48-12.12,2c-4.07,0.52-8.44,1.44-12.74,3.25
			c-4.13,1.74-7.54,4.42-10.82,7.29c-3.46,3.02-5.92,6.1-7.24,10.32c-1.24,3.95-1.71,8.09-0.79,12.33
			c0.94,4.34,2.21,8.65,5.88,11.01c4.73,3.05,10.08,5.07,14.79,8.06c4.68,2.96,8.58,7.9,14.28,9.17c4.75,1.06,10.06,0.41,15.04,1.43
			c4.9,1,9.84,2.12,14.63,3.43c4.92,1.35,9.66,3.16,14.09,5.22c3.29,1.53,5.63,3.97,9.29,4.29c2.9,0.25,5.68,0.69,8.56,1.35"/>
	</g>
	<g>
		<path class="st1" d="M129,259.28c4.08,1.74,8.69,2.18,12.63,4.07"/>
		<path class="st1" d="M173,253.57c0.03,1.82-0.46,3.56-0.81,5.3"/>
		<path class="st1" d="M212.93,256.83c-0.41,1.84-0.97,3.7-2.04,5.3"/>
		<path class="st1" d="M247.15,262.54c-2.71,2.79-6.83,4.16-9.78,6.93"/>
		<path class="st1" d="M250,293.09c2.31-0.26,4.26,0.82,6.52,0.81"/>
		<path class="st1" d="M251.22,319.57c4.13,0.51,6.99,5.32,11,4.89"/>
		<path class="st1" d="M252.04,347.68c1.66,4.67,2.73,11.02,3.26,15.89"/>
		<path class="st1" d="M234.01,345.34c-0.59,2.16-1.23,4.2-1.94,6.01"/>
		<path class="st1" d="M221.89,328.54c-0.94,1.22-2,2.38-3.26,3.26"/>
		<path class="st1" d="M201.11,310.2c-1.41,2.24-2.96,6.57-5.7,7.33"/>
		<path class="st1" d="M164.85,298.8c-2.59,0.32-4.49,2.4-6.93,3.26"/>
		<path class="st1" d="M127.78,283.72c-2.68-0.92-6.11-0.41-8.96-0.41"/>
	</g>
</g>
</svg>
