<?xml version="1.0" encoding="UTF-8"?>
<svg id="_图层_1" xmlns="http://www.w3.org/2000/svg" version="1.1" viewBox="0 0 214.74 255.79">
  <!-- Generator: Adobe Illustrator 30.4.0, SVG Export Plug-In . SVG Version: 2.1.4 Build 226)  -->
  <defs>
    <style>
      .st0 {
        fill: #040000;
      }

      .st1 {
        isolation: isolate;
      }
    </style>
  </defs>
  <g>
    <path d="M213.34,255.01c-4.08-6.87-7.44-14.08-10.8-21.39-.65-1.7-1.51-5.91-1.51-7.67,0-.97.81-1.48.79-2.42-.02-.88-.5-1.88-1.23-2.4-1.32-.92-5.52-3.19-7.01-3.54-2.72-.63-5.35.15-8.12-.07l.28.55c-1.35.24-2.42-.86-3.54-1.31-9.19-3.65-18.46-7.84-27.62-11.78-3.44-1.48-8.31-2.99-11.99-3.27-.23-.02-.46,0-.69,0l.55.55c-.96.26-.75-.52-1.49-.86-1.53-.71-3.9-.78-5.59-1.35-1.08-.36-5.75-2.89-6.47-2.47-.15.09-.17.81-.59.79-.09-.31.41-.66.12-.84-.5-.3-1.44-.37-2.04-.71-.85-.48-2.91-2.17-3.61-2.77-7.02-5.98-6.24-12.89-6.96-21.35-.09-1.09-.62-2.29-.68-3.33-.1-1.78.58-3.55.68-5.28.13-2.32,0-4.74,0-7.07l-1.66,1.53.55.41c-.44-.02-.79.11-1.13.39-.95.77-3.67,5.17-4.82,6.55-.56.67-1.54.73-.99,1.37-1.81.2-.69.85-.82,2.23l.83-.28.14,1.11.14-1.11,1.11.56c-.99.95-1.07,1.83-2.35.82l-.42.56v-.84l-1.94.56v-1.11c-.14,0-.29-.03-.41,0-1.89.6-4.39,1.86-6.46,2.14-4.34.59-13.56-1.18-17.36-3.3-.66-.37-1.18-1.15-1.64-1.42-1.31-.78-3.56-1.3-4.83-2.23-.35-.26-1.14-1.51-1.7-1.83-1.4-.8-1.18-.46-2.53-1.56-.75-.62-3.15-2.26-3.55-2.7-.45-.49-1.85-4.3-2.44-4.35-1.03-.1.67,2.23.41,2.49-1.08-.42-.79-1.78-1.52-2.5-.39,3.15,2.09,5.83,2.92,8.73-.56.64-.45-.07-.58-.26-1.01-1.43-1.28-2.98-2.47-4.03.95,2.36.16,5.84.96,8.06.32.89,1.92,2.29,2.22,3.05.43,1.08.26,1.32.94,2.67.66,1.31,1.94,3.59,2.71,4.81.1.17,2.13,1.57,1.35,1.67-1.27.23-.8-.32-1.23-.97-.93-1.4-1.83-2.38-2.88-3.81-.56-.76-1.15-2.08-1.7-2.87-.12-.18-.71-.95-.99-.67.41,1.81.83,3.89,1.08,5.71.12.9-.07,1.82.06,2.71.29,1.97,2.33,9.75,1.37,11.1-.16.23-.59.13-.74.27-2.41,2.23-4.65,4.59-7.63,6.12-1.98,1.02-4.4,1.27-6.34,2.27-4.8,2.47-10.98,8.26-15.58,11.61-2.44,1.77-5.34,3.23-7.73,5.04-1.56,1.18-2.89,2.83-4.49,3.84-.96.6-4.98,2.13-6.07,2.26-1.08.13-1.81-.58-2.98-.23-2.83.87-5.31,4.44-7.99,6.18-.67.43-1.32.28-2.1.95-2.61,2.26-1.08,4.09-.82,6.67.16,1.58.45,4.91.26,6.36-.19,1.39-1.21,2.72-.81,4.32l-.83-.83c-.35,2.4-1.75,5.33-1.91,7.66-.08,1.06.2,1.59.25,2.46.03.55-.06.43-.56.41-.79-2.5,0-4.09.48-6.32.21-.99.22-2.16.49-3.12.49-1.75,1.7-2.21,1.81-4.3.05-.96-.27-1.71-.25-2.46.02-.95.56-1.94.54-3.07-.08-3.6-2.62-5.33,1.25-8.47,1.8-1.46,5.57-4.52,7.37-5.67,2.85-1.83,3.81-.99,6.38-1.45,6.14-1.1,7.02-5.42,10.66-7.06.51-.23.89.06,1.45-.18,5.73-2.45,14.36-10.84,19.78-14.64,1.74-1.22,4.52-1.77,6.48-2.69,2.4-1.12,6.66-4.1,8.23-6.19,1.63-2.17-.25-7.85-.72-10.42-.27-1.5-.68-2.91-.92-4.33-.33-2,.11-4.99-.44-6.78-.71-2.32-4.22-7.1-5.53-9.73-2.51-5.05-4.39-10.49-6.19-15.73-1.69-4.93-3.73-10.02-4.49-15.21-.04-.29-.23-1.01.25-.94.41,1.66.66,3.48,1.13,5.12,1.93,6.79,4.65,14.45,7.29,21.01.36.91.39,1.22,1.3.78.11.12.29,2.24.37,2.44.02.05.36.08.44.28.11.26,1.37,3.54,1.69,3.11-.28-2.09-1.61-3.9-2.36-5.83-.17-.44-.11-.95-.28-1.39-1.85-4.84-4-9.61-5.13-14.7.87-.15.42.27.55.68.48,1.57,1.05,3.03,1.58,4.53.69,1.95,1.24,3.96,2.03,5.88.5.07.22-.57.15-.85-.64-2.79-2.15-5.57-2.1-8.58l.77.49c1.21,6.56,3.77,12.79,5.87,19.09.51,1.52.8,3.53,1.29,4.84.11.29.72.62.67,1.1l.02-2.36c-.67-3.25-.2-5.85-1.54-9.04-.25-.59.23-1.72-1.26-1.09-.34-.78.52-.82.55-1.02s-.02-1.9-.08-1.98c-1.05-1.32-.87-2.9-1.43-4.22-.14-.34-.9-2.14-.99-2.22-.17-.14-.67-.13-.52.38.28,1,1.2,2.56,1.09,3.64l-.83.14c.67-1.19-.26-1.14-.26-1.22,0-.25.34-.6.27-1.09-.02-.13-.94-1.73-1.08-2.08-.41-1.01-.93-1.84-1.14-2.97l.83.14c.38-1.52-1.04-.47-1.1-.55-.43-.58.95-.93.27-1.66l-.54.28c.64-1.91-.23-1.48-.5-2.13-.14-.32-.03-.84-.19-1.21-.82-1.91-2.03-3.94-2.77-5.53-.22-.47-1.22-1.06-1.55-1.81-.2-.44-.02-1.08-.23-1.37-.22-.32-.79-.1-.86-.17-.71-.65.92-.28.83-.82l-.84-.84c-.55.14-.05,1.08-.83.14-1.17-1.4-1.42-3.61-2.03-5.19-1.02-2.64-2-4.91-2.82-7.72-.09-.3.02-1.24-.14-1.39-.12-.12-.52-.27-.46.28.18,1.89.05,3.83.19,5.69.13,1.69.38,3.83.58,5.52.88,7.18,2.89,14.1,6.62,20.3,0,.76-.02.62-.33.05-.58-1.05-1.37-1.92-1.88-2.84-2.48-4.41-4.27-11.38-4.96-16.4-.97-7.02-.23-13.32-2.1-20.33-.15-.57.59-.78-.71-1.14l.83,9.71c-.4.07-.36-.53-.42-.82-1.16-5.77-.78-11.39-1.24-17.21h1.11c-.43-1.39.39-2.78.36-4.22l1.03-3.55c-.18,2.02-.79,4-1.07,6-.44,3.18-.47,5.99.35,9.06.13.48.53,1.61.99,1.86.07-4.52.21-9.42.98-13.87.28-1.62.9-3.95,1.42-5.06.09-.18-.47-.59.37-.49.09-.53-.61.03-.52-.63.16-1.1.83-.83.79-1.59l-.83.27v-1.66c.27.48,1.65.28,1.66.69,0,.08-.43.49-.47.86-.09.78.6,1.96.2,2.88,1.92-.55.24-1.15.28-1.24.83-1.93.39-2.58.64-4.51.05-.39.5-.73.45-1.01-.05-.31-.64-.5-.7-.86-.1-.64.81-3.2-.66-3.2l-.28,4.71c-.41.08-.41-.73-.4-.97.07-2.74.74-5.21,1.17-7.83.14-.83.64-3.49.63-4.08,0-.12-1.83-.96.54-.99l-1.04,7.15,1.04,3.67c-.19-1.61.95-3.43,1.1-4.88.09-.84-.3-1.53-.27-1.89.02-.23.72-.28.98-.72.09-.15.69-3.2.7-3.45,0-.22-1.11-.33-1.39-.43.49-1.38.25-3.05.68-4.45.4-1.29,1.4-1.63.71-3.31l.83.28c.66-1.43-.25-1.42-.28-1.53-.24-.83.5-.69.65-.97.17-.32.25-1.44.45-1.54l1.13.16c-.76,1.41-1.27,2.89-1.49,4.49-.61,4.35.57,2.5,1.59-.1.43-1.11.24-.83.74-1.62-.24.37-2.14,7.25-2.41,8.24-.55,1.95-2.27,4.99-.22,6.46l1.67-4.85c-.29-1.01-1-1.67-.98-2.92,1.17.28.2,1.73,1.38,1.66.62-2.16,1.14-4.47,1.86-6.59.1-.29.5-.33.54-.43.54-1.37.92-3.3-.32-4.35-.29.57-.51,2.03-.85,2.49-.22.29-.66.25-.68.28.22-.34,1.3-3.61,1.37-4.04.06-.4-.41-3.41-.81-2.89.12.83-.03.95-.84.83.8,1.21-.84,1.97-.27,3.05-1.95.12-.33-1.22-.3-1.32.4-1.38.7-2.53,1.02-3.68.1-.35.7-.82.8-1.35.11-.59-.3-1.56-.13-2.25-.53.26-.77,1.09-1.02,1.61-.57,1.2-3.79,8.11-3.64,8.71.14.59.7.87.22,1.88-.39-.18-.83-1.44-.84-1.79-.06-1.64,2.04-6.11,2.95-7.64.13-.21.58-.25.62-.33.06-.12-.27-.54-.17-.86.4-1.27,1.41-2.97,1.82-4.3.18-.41.03-3.39.48-3.4.64,0-.08,1.91.14,2.21.29-.15,1.06-1.38,1.38-.41.04.12-1.46.69-.83,2.08-.68-.53-.72.04-.74.8-.03,1.03.71,1.89.73,2.38.02.41-.52,1.17-.5,1.95.02,1.11.52,2.32.52,3.46l.83-.28c-.02.82-.9,1.05-.78,2.01.03.26.75,1.87.92,1.87l5.69-11.65c.59-.04.54,1.74.41,1.94-.11.17-.53.22-.6.36-.91,1.68-2.21,3.06-2.87,5.04-.19.59-.43,2.83-.55,2.92-.06.04-.71-.39-.83-.28-.07,1.4-.98,1.87-.96,3.36,0,.5.43,1.82.37,1.89-.11.12-.64-.18-.52.3,1.31.35.72,2.79,2.08,3.6.1,0,.95-1.68.97-1.8.03-.15-.48-.08-.55-.32-.35-1.21-.22-3.21-.56-4.53.83-.02.47,3.53,1.38,2.77.32-.27,2.05-6.83,2.46-7.93,1.04-2.79,2.78-5.64,4.06-8.46.2-.43-.13-.82.11-1.23.63-1.05,3.5-2.94,4.45-3.89.31-.32.3-.88.56-1.1.14-.11,2.65-.06,3.5-.68.92-.68,1.98-3.08,3.31-4.19.3-.25.82-.2.94-.3.04-.03-.25-.66.09-1.01.21-.21,1.26-.61,1.71-.94.31-.23.44-.73.48-.75.12-.07.44.24.62.23.2,0,.16-.45.39-.52,1.83-.57,3.47-.24,3.67,1.92-.9-.5-1-1.77-2.29-1.61-.45.06-2.47,1.1-2.74,1.47-.36.49.08.95.04.98-.09.06-.66-.08-1.04.08-.07.03-.59.86-1.04,1.03l-.41-.55c.02,1.94-2.16,2.23-2.78,3.88.77-.02,1.52-.03,2.29.08.44.06,1.25.05,1.04.75-1.42-.49-3.09-.6-4.16.55l-.14-.83c-1.85.4-2.64,1.14-4.06,2.06-.26.17-.76.13-.8.17-.03.02.28.41.23.5-.08.12-1.24.65-1.53.97-.93,1.02-2.71,4.28-3.38,5.64-1.57,3.14-5.69,14.06-5.28,17.15.07.55.92,2.25.81,2.38-.22.26-1.08-.69-1.12-.76-.3-.55.4-1.06-.54-.9.3.77-.32,2.11-.28,2.61,0,.1,1.29.95,1.39,1.41-.29.45-.55.43-.94.11-.56-.47-.22-1.02-.72-1.08-.33.64-.14,1.45-.29,2.02-.04.14-.25.5-.43,1.24-.48,2.01-1.78,6.17-1.7,8.03.03.69,1.3,1.6,1.03,2.02-.41-.37-1.04.35-1.11.28-.1-.12.53-.97-.28-1.11-.34.47.03,1.27-.02,1.49-.04.18-1.32,1.37-1.35,1.46-.15.44.18.91.26,1.34-.54.6-1.16-1.03-1.13-1.37,0-.16.52-.12.53-.28.07-.98-1.04-3.89.6-3.48.46-.46-1.55-2.52-1.94-2.98-.15-.18-.13-.59-.25-.72-.26-.29-.86-.06-.99-.73l-.88,5.21c.02.63-.68,1.66-.67,2.13,0,.29.73-.03.57.43-.78-.13-.89,3.3-.85,4.02.05.86.25.98,1.13.98.28,1.11-1.31.06-1.1.96.13.55.83.76.83.86-.03,2.09.8,4.64,1.53,6.77.96,2.78,2.3,6.18,3.4,8.81.79,1.9,1.81,3.77,2.7,5.62.55.12.5-.24.35-.63-.29-.78-1.03-1.66-1.26-2.62-1-4.11-1.31-8.35-1.94-12.49-.35-2.33-.75-4.2-1.02-6.6-.14-1.24-.07-2.51-.43-3.73l1.38,1.8c.09.25-.45.05-.52.27-.07.2.35,3.62.44,4.25.33,2.31,1.45,5.3,1.62,7.24.04.47-.38.77-.35,1.21.28,3.25,1.1,5.96,1.86,9.08.87-.46,1.28-.64,1.22-1.7-.43-3.24-1.35-6.68-1.69-9.9-.12-1.14-.15-1.59-.31-2.41-.51-2.72-.8-5.46-1.17-8.19h.83l-.53.66,2.51,12.89,2.74.31.14-.83c.42.2,1.41.83,1.8.56.03-.02-.26-.37-.2-.49.04-.08.47.02.51-.47.05-.69-.59-1.56.24-1.81.27,1.34,1.94,2.6,3.2,2.91.52.13,1.35-.18,1.47-.1.1.06.18.6.45.81,3.8,2.98,2.19.23,2.38,0,.44-.1,1.33,1.47,1.66,1.11s-1.16-1.5-1.38-1.8c.65-.34,1.52.85,2.09,1.25.24.17.57.18.75.3.05.03.75,1.11.78.39.02-.48-.64-1.08.13-.96.96.89,1.61,2.11,2.78,2.77.41-.18-1.08-1.84,0-1.38.78.33,1.32,2.21,2.08,1.8-.11-.32-1.41-1.52-.56-1.8.24,1.46,1.46,1.17,2.5,1.67l-.55.27c-.32.78.79,2.14,1.53,2.5.16-1.22-1.29-.84-.67-2.28.3-.7.39.42.26-1.33.9.66,2.14,2.42,1.11,3.33l1.52-.83.69.84c-.42-2.02-1.69-2.75-3.19-3.88-.24-.01-.15.37-.14.55-.12-.09-.6-.1-.91-.28-.24-.14-.36-.73-.91-.82-.64-.11-.3.36-.4.54-.15.26-.45-.58-.72-.8-.88-.69-2.16-1.16-3.02-1.97l-.41.55c0-.23-.13-.52-.3-.67-1.84-1.54-4.68-2.92-6.71-4.32-.66-.46-1.1-1.22-1.37-1.6-.21-.3-1.51-.22-1.34-1.46l-.55.55c-.45-.99.02-1.32.88-.81.62.36,1.56,1.8,1.98,2.11.34.26,1.17.24,1.3.36.04.04,0,.46.29.67,1.09.81,2.79,1.44,3.74,2.66l.41-.55c-.57,1.97.08.54,1.2,1.15.37.2.73.52,1.34.86.54.3,3.21,2.19,3.57,1.87-.04-.5-1.89-3.04-2.08-3.04l-.7,1.1-.28-.83-.55.55.13-1.1.98.27c.29-.23-3.45-5.01-3.87-5.42-.78-.77-1.38-.9-2.21-1.41-.22-.13-.26-.56-.34-.61-.37-.22-1.07.12-1.06.36,0,.6,2.39,2.94-.56,3.47.58-1.12-1.69-1.52,0-2.77l-.27,1.39c1.53-.27.42-1.51.08-2.45-.13-.35,0-.92-.12-1.12-.11-.18-.68-.13-.89-.29-.27-.21-.18-.7-.47-.98-2.49-2.39-4.98-4.89-7.47-7.25-.4-.38-2.9-1.61-2.23-2.35.47-.52,3.69,3.25,3.97,3.52.37.35,1.41-.02.74,1.2,1.39-.72,1.57,1.39,2.01,1.88.13.14,1.3.66,1.7.95.51.35,1,1.73,1.56.51l-.55-.56c1.38-.32.67.76.93,1.32.22.47,2.38,2.46,2.89,2.84.2.15.76.5.9.14l-5.97-8.74c-.42,1.05,1.54,3.08,1.52,3.75,0,.41-.49.45-.83,0-.68-.9-1.43-2.65-1.76-3.74-.16-.53.58-.66-1.01-.57.94-.58-.07-1.57,0-1.66.08-.1.67.22.55-.28-.45,0-.89.12-1.24-.3-.3-.36-2.54-4.1-2.6-4.34-.08-.34.25-.8.21-.88-.03-.06-.74-.26-1.09-.72-.93-1.23-.43-2.88-1.93-3.75.34.13.68-.33.79-.25.58.4,1.95,3.72,2.46,4.61,1.17,2.01,2.31,3.46,3.79,5.37.3.38,1.23,2.08,1.34,2.14.29.16.81-.06,1.01.11.4.34,2.11,4.12,2.52,4.82,1.17,1.97,2.96,5.12,4.67,6.52.29.24,1.29.9,1.73.82.25-.2-2.81-5.04-3.88-4.72l.83-.41c-.29-.99-1.87-2.36-1.9-2.52-.06-.28.34-.8.24-.94-.03-.05-.79-.14-1.1-.43-.47-.43-.41-1.03-.72-1.51-.14-.22-.68-.28-.67-.42.02-.84,1.06-.78,1.59-.34.19.16,1.2,2.68,1.56,3.29.72,1.22,1.7,2.71,2.51,3.88.23.33,0,.68.72.52-.42-1.07-.26-2.26-.69-3.34-.21-.53-.91-.77-.95-1.52,0-.11.41-.11.51-.34.5-1.14-1.4-7.01-1.79-8.66-.27-1.15-1.51-8.3-1.87-8.55-.17-.12-.53-.04-.76-.05l.55-.27c-.42-2.72-1.32-5.74.16-8.31.68-1.19,4.17.25,5.21.86.35.21,1.42.81,1.29,1.34-1.48-.06-4.44-2.25-5.64-1.96-.38.09-1.57,3.1-1.3,3.75l2.23,10.14.55-.28c.12.17.23,2.72.34,3.2.08.32.75,1.79.75,1.91-.3,7.7,4.24,13.26,10.2,17.59,1.51,1.1,2.81,1.41,4.17,3.04.33.39.48.72.34-.07-.53-3.07-6.03-8.92-6.89-12.54-1.99-5.89-6.3-12.1-8.24-17.84-.19-.56-.35-.99.43-.84,1.43,2.83,2.53,5.86,3.93,8.7,2.41,4.88,5.19,9.78,8.01,14.06.53-.7,1.64,1.35,1.38,1.94,1.01-.58.95.36,1.8,1.12,1.59,1.42,4.37,3.39,6.53,3.46-4.2-5.11-7.96-10.55-11.1-16.37l1.11-.41c-.16,1.5.69,2.72,1.42,3.93,2.07,3.44,5.36,7.77,7.9,11.03,1.48,1.89,2.18,3.38,4.83,3.64-.24,1.09-2.38-.42-2.49-.28-.03.81.97,1.02.63,1.87-.63,1.59-1.12-1.66-1.32-1.86-.42-.43-2.68-1.15-3.44-1.57-3.58-1.98-5.79-4.15-8.36-7.32.82,2.34,2.66,4.11,4,6.13,1.07,1.62,2.39,3.6,3.34,5.26.18.32.55,1.18-.26.54-.5-.81-1-1.87-1.53-2.63-.26-.37-.95-1.28-1.39-1.39.99,1.77,1.94,4.43,3.19,5.97.43.53,2.97,2.3,3.78,2.88.72.52,4.37,3.17,4.84,3.12.66-.24.73-.97.69-1.57.47-.07.23.51.43.81.75,1.16,1.02-1.05,1.32-1.3.15-.13.54,0,.69-.13.25-.21-.28-1,.61-.77v3.05c.3-1.44,1.22-2.71,2.08-3.88.33.86-.59,1.9-.97,2.64.77.4,1.3-1.47,2.08-1.8.86-.37.04,1.14-.14,1.38.58.46,2.06-2.7,3.05-2.77l-2.82,4.37c-.45.39-1.13-.48-1.2-.48-.31,0-.23,1.13-.97.83l-.28-1.11c-.16.73-.71,2.99-1.25,1.39l-.28,1.11c-.72-.63-2.45.28-2.88-.04-.13-.1-.11-.72-.39-1-1.16-1.19-3.13-1.91-4.31-3.1l-3.1-1.69c.31,1.29,3.84,5.56,3.59,6.48-.09.32-.47.53-.81.45.53-1.5-1.38-3.07-2.17-4.35-.7-1.14-1.33-2.73-2.13-3.7-2.54-3.1-7.79-5.5-9.95-9.33l-5.18-2.87c.82,2.62,3.33,4.66,4.84,6.95.66,1,1.37,3.2,2.37,4.28,1.03,1.12,2.75,1.72,3.74,2.93.12.15.96,1.42.99,1.51.08.21-.53.15-.69.4-.9,1.36,2.1,3.49,1.8,5.01-.57-.53-1.39-1.6-1.79-2.24-.2-.33-.04-1.37-.85-1.37-.14,0-1.31,2.09-2.08,1.66-.1-.42.37-.16.54-.48.11-.2.35-1.13.29-1.18-2,.86-.55-2.76-1.53-2.77-.55,0-.33,1.5-.44,1.63-.62.74-2.39-.49-2.48-1.36l-.83.83c.11-1.03-.27-2.03-.98-2.77-.38.1.21.71.12.81-.1.12-.65-.19-.53.29l.83.56c-.77.25-1.38-.68-1.85-.76-.3-.05-.78.29-.91.2-.08-.06-.46-1.3-.85-1.8-.58-.73-1.68-.89-1.11-1.53-.33,0-1.05-.19-.83.41.43,1.2,2.12,1.02,2.21,2.36-.09.1-1.64-1.64-2.45-.79-.04.04.3.78-.32.79-.25-2.24-1.96-1.47-2.92-1.79-.98-.32-2.81-3.21-3.74-1.27.19.25,2.42.34,1.81,1.11-.57-.44-1.41-.1-1.97-.52-.68-.51.11-1.57-.53-1.69-.48-.09-.71.68-1.16.79-.85.21-1.67-1.06-1.33.59-.52-.95-2.51-.49-2.64-.56-.03-.02.18-.38.11-.55-.31-.72-.85-.23-1.27-.36-.76-.24-1.56-.77-2.44-.75l.83.56c.09.45-.77.33-.81.68-.02.17.57,1.11.64,1.51.15.83.48,4.77,1.14,5.02.25-1.18,1.87.11,2.79.26,1.62.27,4.66-.07,6.05.29.26.07.16.54.18.56.16.11.47-.55.91-.51.25.02,3.85,1.33,4.29,1.54.34.16,1.77,1.38,1.89,1.42.24.07.66-.26,1.15-.03s1.76,1.76,2.06,1.98c.05.04.93-.32,1.29.12.31.37.06,1.24.1,1.29.18.19,1.03.27,1.07.32.03.04-.2.89-.68.84-1.05-.12-1.7-1.45-2.8-1.67l-.13.83c-.1.1-1.32-1.08-1.82-1.12-.57-.04-.82.43-1.13.49-.33.06-.71-.21-1.06-.2s-1.17.35-1.25.28c-.14-.13.37-1.08-.56-.83l-.27.55c.53-1.54-1.37-1.01-1.62-2.14s1.36-2.2-1.57-.91c.2-1.6-1.22.49-1.67.56-.19.03-1.37-1.2-1.8-.84-.54.44.51.57.54.73.04.21-.23.58,0,.93-.31.19-1.87-1.14-2.49-1.27-.86-.18-1.19.4-1.95.44l.83-1.1-1.25.28c.23-1.41-.74-.06-1.22.25-.16.1-.54-.02-.59.03-.26.25.52.8.51,1.2-.03.86-1.13.3-.65,2.13.58,2.18,3.17,5.61,4.27,7.71l1,2.83c-.82-1.23-1.61-2.47-2.36-3.74-.42-.72-.08-1.43-1.66-1.25l.7-.28c.56-.69-.39-.54-.77-.83-.59-.45-.68-1.34-1.32-1.39l.83-.83c-.28.04-.89.43-1.11.28-.12-.09-.75-2.51-.9-2.92-.37-1-1.16-2.39-1.68-3.53-.16-.35-.58-3.05-1.07-1.48-.21.69.3,1.45-.52,1.97.11.37.76-.2.83-.14.15.12.89,2.5,1.1,2.93.26.52.79.92,1.05,1.45.51,1.05.51,2.27,1.46,2.98l-.55.41c1.17-.22,1.56,1.89,1.95,2.78l.55-.28.3,1.45c.87,1.72,3.79,4.63,4.42,6.18.05.13.07.45-.13.41-.28-.32-.7-.45-.98-.76-2.23-2.48-4.13-6.21-5.91-8.95-.57-.88-.55-.41-.9-.82-.13-.14-.29-2.94-.96-3.61-.9-.9-.24,2.13-.83,1.94-.45-1.45.57-3.03-.7-4.16.03,1.16-.51,6.06-.13,6.73.15.27,1.41.4,0,.89.82.83.14,1.51.14,2.22-.02,7.03,2.06,13.61,4.23,20.06,2.28,6.78,2.48,13.07,6.78,19.03,2.11,2.92,8.73,6.69,11.86,8.67.87.55,1.64,1.55,2.26,1.9,1.44.79,8.43,2.78,10.11,2.93,5.9.53,9.79.04,14.3-3.72,1.63-1.37,3.76-3.23,5.09-4.9,1.26-1.59,2.25-3.43,3.51-5.02.56-.71,2.69-2.52,2.9-3s.07-1.25.17-1.36.62.05.79-.03c.04-.02-.24-.61-.02-.91.18-.26.71-.15,1.11-.62.22-.26,1.9-2.89,1.92-3.07.05-.52-.69-1.11-.5-1.76.88-.22.34,1.18,1.24.27,1.85-3.65,6.26-9.06,7.02-12.96.18-.93,0-1.77.25-2.8s1.99-4.43,2.04-4.94c.08-.75-.35-2.05,0-3.23.03-.12,1.27-1.58,1.34-1.73.16-.37.03-2.25.11-2.33.13-.12.44.1.5-.17.06-.3-.69.09-.56-.41,1.72.09.79-.04.96-.83.37-1.75,2.09-3.77,1.36-5.56-.15-.38-1.39-1.84-1.76-2.28-.86-1-5.69-5.72-6.59-5.97-1.03-.29-2.71.7-2.28-1.19-1.03-.19-2.22.8-3.05-.14l3.33-.7c-.12-.15-.55-.78-.59-.79-.23-.08-3.89,1.59-4.68,1.35.5-.91,2.07-.85,2.5-1.66-.48-.35-4.13,1.65-4.94,1.88-.39.11-.76-.13-1.02-.08-.32.06-1.22.72-1.53.41-.46-.47,1.03-1.49,1.3-1.88.24-.36.34-1.09.39-1.15.05-.05,1.38-.04,1.45-.02.28.06,0,1.18,1.29,0l.14.55c.53-.96,2.06-.75,1.81-1.94.51-.08.29,1.29.23,1.35-.15.16-1.57.17-1.34,1.15l2.63-.83v.83l1.25-.69c-1.33-.4-1.47-1.36-2.22-2.21-1.32-1.5-5.39-6.45-7.07-6.81-.15-.03-.46-.07-.42.14.72.58.79.52,1.11,1.25.9.43,1.08.98,1.96,1.52l2.76,3.2c-.32.31-3.15-2.94-3.54-3.32-.73-.71-.49.18-1.18-1.39-1.97-.95-2.67-2.35-4.35-3.56-.74-.53-1.76-.46-1.49-1.3.07-.21.51-.09.56-.14.16-.14-1.42-1-1.81-1.37-6.48-6.22-11.03-15.18-16.78-22.06-.46-.55-4.43-4.91-4.99-4.31-.02.83-.07,1.64.18,2.45.32,1.04,3.17,3.77,4.04,4.76.83.94.5,1.14-.52.46-.7-.47-1.98-1.19-2.47-1.83-.77-1.03-2.67-5.36-2.04-6.36.76-1.2,3.84,1.72,4.42,2.32,5.95,6.15,10.8,15.07,16.36,21.64.58.68,1.5,1.16,1.67,2.08.45.12.19-.37.33-.47.44-.31,1.54.24.23.6.72.72,1.18,1.53,1.94,2.22s3.43,2.56,4.31,2.91c.8.32.16-.74.13-.83.97.96,2.41,2.05,3.52,3l5.91,3.38c.29-.3-1.34-2.53-1.67-2.9-.61-.67-1.65-1.49-2.38-2.04-2.05-1.54-4.35-2.77-6.63-3.93-.38.66.8,1.15,1.1,1.68.18.31.08.59.15.81-.73-.73-1.43-1.42-2.07-2.23-.55-.69-.11-1.38-1.54-1.1-.15-.12.61-.54.54-.93-.04-.26-2.86-3.43-3.33-3.98.31-1.29-1.76-1.18-1.24-2.57,1.3.55,1.61,1.77,2.27,2.71.57.82,1.26,1.52,1.85,2.31.29.38,1.25,2.31,1.36,2.4.18.15.71.05,1.02.22,2.21,1.21,4.3,2.52,6.38,3.9.24.16.62.68.86.25-2.53-4.22-5.35-8.22-9.15-11.38.6-.42,1.11.72,1.53.97l.13-.41c-1.36-1.91-2.63-3.87-3.83-5.89-.7-1.18-2.8-5.71-3.37-6.27-.34-.34-.95-.36-1.4-.48l.83-.69c-3.19-5.43-5.84-11.31-9.98-16.1.49-.39,1.41.82,1.78,1.27,7.46,9.14,11.3,23.02,19.31,31.75,1.21,1.32,1.97.87,2.71,1.32.26.16.34,1.12,1.45.77.08.06-1.05.81.14,1.38l.27-1.38c1.05,1.85,2.96,2.03,4.67,3.1,2.09,1.3,4.54,2.77,6.01,4.67-1.74-1.01-3.61-2.23-5.34-3.34-1.27-.82-2.38-2.49-4.37-2.35,1.84,2.02,4.68,3.18,6.66,4.99.26.23,1.11.84.69,1.25-1.27-1.17-2.65-2.48-4.3-3.05-.28.24,4.74,4.89,5.21,5.26.36.28.98.39,1.44.72.74.54,2.6,2.35,3.21,2.62.44.19.57-.33.41-.55-.02-.02-.34.04-.54-.21-1.07-1.28-3-3.13-4.26-4.17-.2-.16-.69-.02-.74-.08-.31-.34-.05-1,.67-.74.84.31,1.14,2.52,2.65,2.14-.55.72.11.5.56.95,2.05,2.06,3.66,3.03,5.74,4.67.23.18.36.83.77,1.03.63.3.1-1.35,1.24-.83l-.83-.55c.65-.04,2.02-.35,2.6-.27.09.01.68.89,1.55.54l-1.57-1.34c-1.36-.29-2.32-1.87-3.7-1.43l.28-.54c-.73-.56-2.87-.4-3.27-.62-.12-.07-1.27-1.63-1.83-2.05-1.03-.78-2.11-.99-2.94-2.06.19.11.61.08.92.27.25.15.04.67.47.57.35-1.15-.55-1.15-.84-1.59-.94-1.47-1.81-3.07-2.21-4.79l1.56,2.46,3.58,1.69c.63-.52-.23-.52-.31-.65-.58-.9-1.05-2.01-1.98-2.67-.86-.6-2.19-.76-2.84-1.81,1.05-.06,2.49.89,3.42,1.58,1.46,1.07,3.34,2.89,4.24,3.84,2.27,2.38,5.4,3.29,8.43,4.44.42-.35-3.59-2.99-3.61-3.74.3-.47.61.12.83.28,1.04.8,2.02,1.67,2.92,2.63.17-1.6-1.15-3.13-2.64-3.75,2.15.32.17-1.34-.08-1.87-.47-1-.71-2.07-1.11-3.04-.18-.45-1.66-1.88-.2-1.88,1.16,2.57,2.33,5.73,4.29,7.79,1.76,1.85,5.76,3.77,8.05,5.26.67.44,4.67,3.72,5.14,3.32-1.23-1.06-1.43-2.57-2.11-3.86-.37-.69-.96-1.3-1.33-2-.33-.61-.19-1.65-1-1.91.08.78-.17,1.69-1.11,1.66.36-.7.71-1.16.78-2,.05-.56-1.12-3.78-1.45-4.12-.53-.53-3.12-1.19-3.96-1.59-1.78-.83-4.9-2.47-6.33-3.66-.58-.48-1.76-2.7-2.49-1.12-.75-.96-.95-1.66-1.84-2.59-1.66-1.73-4.98-4.34-6.91-5.86-.46-.37-1.71-.66-1.94-1.12s.16-.49.58-.3c.28.13,2.58,1.5,2.69,1.62.18.21,0,.69.07.77.08.1.59-.28.84-.14.14.08,2.32,1.74,2.43,1.85.06.06-.26,1.27,1.02,1.08.28-.04-.05-.69.42-.57.24.74.14,2.03,1.11,1.94-1.19-1.44-.08-1.63.48-.06.13.36-.02.95.13,1.13.09.1,1.94.97,2.31,1.26,2.58,2.04,4.62,3.96,7.83,5.36.29.13,3,1.02,3.11.91-1.16-2.76-4.46-3.89-6.75-5.6-6.63-4.95-11.21-11.39-18.3-15.85-.76-.48-2.52-1.07-3.07-1.57-.07-.06-1.26-1.73-.33-1.4.6,1.61,1.52.63,2.19.9.36.15.37.6.65.77,1.75,1.1,3.37,2.3,5.11,3.42l13.83,6.28c.5-.52-1.97-1.65-2.35-1.95-1.44-1.13-3.45-3.49-4.67-4.35-.47-.33-1.44-.16-1.86-.78l.83-.27c-1.44-1.8-3.27-3.27-4.44-5.28,1.02-.37,1.57,1.47,2.1,2.06,1.33,1.48,2.91,3.03,4.46,4.28,2.3,1.86,5.73,3.23,8.51,4.68.34.18.98.19,1.02.22.13.11.21.6-.36.5-2.11-.37-4.39-2.03-6.3-3-.11.52.24.69.58.94,2.17,1.6,5.69,4.08,8.01,5.31,1.29.68,2.68.97,3.95,1.6,2.75,1.36,5.49,2.77,8.26,4.08-1.04-3.1-4.59-3.86-7.02-5.6l-7.13-3,.84-.43,7.91,3.77c.52-.57-1.15-1.15-1.74-1.58-1.91-1.4-3.93-2.71-5.8-4.07-.86-.62-1.94-1.87-2.87-2.54.89-.64,1.74,1.04,2.01,1.18.31.17.85-.04,1.01.11.11.1-.04.57.08.72.1.11.91.24,1.32.5,2.34,1.5,5.95,4.06,8.05,5.83,2.36,1.98,4.2,5.04,6.41,6.9,1.86,1.57,5.5,3.79,7.67,5.1,1.5.91,3.03,1.98,4.8,2.27.07.49-.62.27-.9.21-3.9-.84-8-4.62-11.44-6.59l-.13.96c-.67.58-.51-.35-.82-.83-.2-.32-.71-1.12-.99-1.24-.42-.18-.59.19-.28.56.24.28,1.16.2.56,1.1-2.72-2.41-5.8-4.28-9.01-5.97-6.81-3.58-14.51-6.41-21.07-9.44-.42-.19-.67-.92-1.41-.68-.04.03.27.62.37.74,1.78,2,5.06,5.04,7.12,6.89,2.71,2.45,5.82,4.81,9.03,6.51l-.35-1.29-.62-.78.68-.15c1.07,1.64,1.78,3.49,3.5,4.56,1.51.94,4.83,2.4,6.58,2.6.3.03.78-.22.86-.17s.95,1.88,1.14.24c-.31-.04-.63-.17-.85-.4-.9-.95-1.71-1.85-2.47-2.73-.34-.39-.93-.54-1.11-1.19-.15-.57.47-.49.54-.4.03.04-.12.44.21.84,1,1.25,1.4.48,1.46.54.03.03-.04.53.17.81.6.8,3.74,3.35,4.63,3.69,1.88.72,4.4.69,6.5,1.54.19.08,1.13.65.22.61-.88-.55-2.17-.8-3.18-.98-.29-.05-.91-.36-.84.15l13.04,5.56c.05.54-.86.23-1.13.15-2.11-.58-3.9-2.11-6.09-2.37,1.1,1.64.17.53-.58.16-2.27-1.11-4.47-2.43-6.57-3.42-.92-.43-3.29-1.45-3.67-.08.44.14,1.01-.38,1.34-.23.04.02.09.36.26.5,1.72,1.35,2.6,1.46,3.69,3.33.07.11,1.98-.07,2.47.72.76.94-1.12-.43-.96.69-3.23-2.18-6.03-4.55-9.63-6.13-1.57-.69-1.86-.51-3.42-.87-.09-.02-.51-.93-1.52-.49l2.12,6.38c2.16,2.74,2.72,5.72,5.57,8.04,2.89,2.35,6.16,4.08,9.21,6.27.82.59,1.61,1.39,2.51,1.93-1.76.24-3.55-1.98-4.93-2.9-2.42-1.62-5.12-2.9-7.28-5l2.08,3.6c.93,1.36,1.24,4.1,2.23,5.26,1.35,1.58,5.94,2.94,7.61,4.6-.21.4-.72,0-.98-.13-2.11-1.03-4.02-2.49-6.23-3.34.26,1.39.39,2.83.62,4.24.06.37.63,1.42.49,1.59-.38.46-.61-.28-.69-.54-.42-1.45-.75-4.99-1.62-6.02-.61-.72-2.92-1.81-3.77-2.47-.8-.62-2.62-2.17-3.23-2.88-.84-.98-1.28-2.82-2.34-3.77,1.57-.68,1.89,2.59,2.31,3.13.21.27,1.3.81,1.7,1.18,1.47,1.35,2.74,2.69,4.58,3.6.71-.89-4.27-9.15-5.56-10.11-1.7-1.26-4.08-2.18-5.69-3.75-.47-.11-.43.12-.4.54h-.27c.16-1.51-1.82-1.69-2.52-2.36-.26-.25.05-.67.02-.69-.13-.08-.53.25-.84.13-.36-.14-2.49-2.72-2.21-.55.23,1.81,2.26,1.53,3.61,1.81l-1.81.55,4.94,3.4c1.31-.32,1.44.92,2.27,1.6.68.55,1.73.83,2.37,1.52-.63.4-1.09-.43-1.8-.44-.35,0-.93.33-.97.3-.09-.07-.48-1.27-1.25-1.94-.87-.75-1.68-.96-2.51-1.35-.39-.19-2.81-2.87-2.9-1.57-.04.53,1.96,3.31,2.32,4.03.11.22-.16.62-.07.77.4.61,4.47,3.06,5.4,3.63.37.22.79.31,1.21.32.05.54-.88.25-1.12.15-.81-.32-1.79-1.34-2.63-1.54-.28-.07-.49-.06-.41.27l1.11.83-.97-.55-.13.41c1.39,1.53,2.29,3.47,3.48,5.13.62.87.84.9,1.54,2.04.35.57,1.11.85,1.08,1.58-1.31-1.23-2.98-2.87-4.05-4.27-1.41-1.87-2.48-4.58-4.27-6.14-.45-.39-3.41-2.37-3.7-2.31-.24.05-.63.64-.74.51.45-1.21-.07-1.26-.98-1.94l-.69,1.53c.37.6,2.36.63,2.46.72.22.19.12,1.47.23,1.85.81,2.71,2.66,7.38,3.98,9.83.67,1.24,3.3,2.86,3.86,4.24.05.13.07.45-.13.41l-1.95-1.94c-.59.55.24.51.42.75,3.46,4.69,6.49,8.83,10.92,12.75,1.82,1.61,4.14,3.04,5.98,4.71.63.57,1.4,1.39,1.97,2.05-.44.1-.69-.17-1-.39-7.03-4.85-13.41-11.3-18.97-17.8-2.33-2.72-3.21-4.84-5.1-7.93-1.04-1.71-2.79-3.14-3.24-5.23-.64-.6-1.13,1.94-1.26,2.2-.58,1.12-1.88,1.42-.95,3.35l-.69-1.11c-.14.06-1.35,2.66-1.25,2.77.52.56.59-1.13,1.11-.55.07.08-.71,1.7.83,1.66l.28-1.38c-.87,2.43,2.01,3.16,2.5,4.3.55,1.31-2.25-1.2-1.94,0,.41,2.08,1.11,4.1,1.64,6.14.53,2.02-.08,3.15,2.24,4.41l-1.11-.14c.42.72.61,2.46.91,2.97.19.33,1.76,2.17,2.18,2.68.23.28.82.49.79.59-.19.66-.55.22-.83,0-1.58-1.22-2.97-4.06-3.72-5.71-.99-2.19-1.31-2.15-2.5-3.88-.84-1.22-2.17-3.63-2.63-4.74-.1-.25.21-.51.21-.66,0-.24-.46-.07-.52-.13-.15-.15-.03-.78.41-.55.65.35,2.58,6.11,4.02,6.66.05-1.64-.77-3.12-1.08-4.59-.15-.69-.23-3.62-.38-3.96-.05-.12-1.68-1.71-1.88-1.84-2.03-1.34-1.05.17-1.22.96-.12.55-.76,1.07-.91,1.59-.47,1.6-.44,3.06-1.15,4.46-.79,1.57-2.63,5-3.95,5.98-.25.19-.73.13-.79.19-.21.21,1.28,4.84.81,5.81.1.04.35-.1.5.05.33.31.92,3.04,1.72,3.56-1.92-.34-1.3-2.57-2.77-3.19-.09-.18.37-.04.55-.41-.12-.05-.48.08-.54,0-.15-.2-.61-4.43-.57-4.99-.08-.1-2.17,1.12-2.25,1.22-.3.37-.14.92-.32,1.2-.12.19-.64.22-.89.63-.4.68-1.69,4.23-2.02,5.2-.35,1.05.39.89-.87,1.32-.59,2.27-3.99,5.47-3.58,7.69.22,1.19,1.76,3.06,2.99,3.26-.88-1.44-.29-3.52-1.66-4.58,1.54-.45-.82-2.71,1.11-2.36l.84,5.64c.85.36.3.62.47,1.23.31,1.16,2.13,6.78,2.91,7.22.34.19.89-.12,1.05.19-1.24,1.19-2.96-1.74-3.38-2.72s-.51-2.4-.95-3.23c-.3-.57-2.78-2.16-3.44-2.93-.37-.43-.5-1.21-.55-1.25-.2-.15-.77.2-.82.43-.19.94,5.19,10.27,6.15,11.58.42.58.96,1.4,1.48,1.85,1.18,1.02,4.44,1.64,4.3,3.47-.06.77-1.19-.94-1.39-1.11-.41-.37-1.09-.93-1.67-.96-.15.13,2.62,2.53,2.22,3.33-1.77-1.32-3.14-3.38-4.85-4.72-.4-.32-1.81-.86-2.33-1.28-1.56-1.26-2.88-3.91-4.05-4.84-.27-.21-.65.03-.67,0-.14-.18-.36-1.67.25-1.64.19,1.26,1.47,2.06,2.24,2.89,1.16,1.26,2.09,2.92,3.87,3.48-1.53-1.61-2.33-3.68-3.34-5.62-.41-.79-1.05-1.79-1.49-2.73-.38-.82-.85-1.86-1-2.74-.67.82-3.79,4.64-3.28,5.5.05.09.53.17.74.5,1.36,2.07,5.13,8.83,5.59,10.93.12.08.53.02.67.29,3.43,6.3,7.27,12.57,12.23,17.75,4.77,4.98,10.77,8.18,15.96,12.62.09.55-.12.51-.55.28-1.02-.54-1.75-1.64-2.68-2.31-.87-.63-1.99-1.01-2.76-1.54-1.18-.83-2.26-1.97-3.52-2.72-.2-.12-.92-.53-.62.06l7.1,5.67c.87.24,2.24,1.6,2.9,1.82.73.24.23-.96.55-.83l1.34,1.86,2.69,1.47c-.48.04-.94,0-1.4-.12-4.48-1.1-16.52-11.24-20.25-14.71-.74-.69-2.84-3.49-3.09-3.7-.19-.15-.72,0-1.04-.2-.39-.23-.57-1.07-.94-1.43-.81-.79-2.15-1.73-2.93-2.5-1.95-1.94-3.76-3.99-5.58-6.07.23-1.23.67.13.95.43,3.95,4.14,8.07,8.11,12.18,12.11.38.37,1.6,1.52,2.12,1.35-4.52-4.68-8.4-10.21-11.62-15.88-.64-1.13-1.42-2.42-1.69-3.68-1.01-.64-.75-1.58-1.38-2.57-.21-.34-.82-.64-1.23-1.33-.43-.72-2.43-4.81-2.66-4.97-.25-.17-.67.18-.83.42-.12.17,1.15,0,.14.69-.57-.35-.53-.82-.7-1.38h1.11c-.71-2.89-1.65-.57-1.65,1.01,0,.63.6,1.12.54,1.2-.02.02-.39-.09-.53.21-.29.61-.71,5.36-.41,5.9.8,1.43,3.84,3.53,4.83,5.14,0,1.18-1.55-.93-1.78-1.15-.12-.12-.5-.05-.63-.18-.33-.35-1.56-3.18-2.31-2.42.04,5.47.31,11.4,1.41,16.74.67,3.24,2.54,7.17,5.09,9.35,1.59,1.36,4.07,1.67,5.96,2.66,3.03,1.59,6.22,3.02,9.38,3.98,3.96,1.2,8.99,1.66,13.19,3.13,2.89,1.01,5.55,2.69,8.35,3.86,2.87,1.2,5.91,1.98,8.78,3.15,5.05,2.05,11.39,5.99,16.8,6.51,2.85.28,5.28-.56,8.2.13,1.86.44,7,3.23,7.99,4.78.24.37,1.07,2.18,1.11,2.52.06.44-.71,1.68-.8,2.69-.17,1.93.19,3.85.71,5.69,3.16,5.62,5.33,12.39,8.41,17.95.89,1.62,2.3,3.15,3.2,4.84M54.79,73.8c.16-.16,1.13-3.76,1.25-4.3.06-.26-.21-.73-.13-1.08.62-2.8,1.85-5.25.96-8.21-.41-1.34-1.41-2.68-1.52-4.17-.11-.11-.56.39-.67.58-.83,1.44-1.54,4.91-1.96,6.71-.26,1.12-1.1,1.74-.43,3.25l-.55-.28c-.94,2.37-1.53,5.02,1.66,5.55v-1.66c.08.98.41,2.33.81,3.22.11.25.12.85.58.39ZM49.52,59.65c.44-.55,0-1.9-.42-1.12-.42.75-.31,2.68-.69,3.61.88-.13.77-1.77,1.25-1.94.41,1.25.73,0,.41-.84l-.55.28h0ZM49.24,74.63c.05-1.78,2-4.99-.55-5.55.19,1.46,0,3.07.08,4.5,0,.24.09,1.12.47,1.04h0ZM48.41,70.75c-.75-.13-.48.14-.63.6-.92,2.88-.94,6.25.08,9.1l.53-2.39c.08-.65-.63-.81.31-1.07-1.19-1.31-.44-1.26-.42-1.94.03-1.37-.2-2.87.13-4.31h0ZM47.58,86.01l.16-3.33-1.27-3.88c.29.89-.37,1.82-.43,2.48-.04.44.74.87-.13,1.55,1.18.29-.08.4,0,1.24l1.11.56-1.11.14c.44,1.31.04,1.41,1.66,1.26v-.02h.01ZM44.25,85.72c-.07-.11,1.25-1.58-.14-2.2-.8.9-.57,2.25-.75,3.19-.68,3.46-1.43,7.9-1.59,11.92-.32,7.93.82,11.14,3.57,18.12.4,1.01,3.07,7.78,3.41,8.05.16.13.61,0,.85.11.99.42,2.41,5.92,3.27,7.15l.83-.55c.11,1.26-.04,2.14,1.11,2.92v.41l-.55.28c1.75.04.84.84.83,1.81-.02,1.41.84,1.15,1.23,1.78.14.22-.03.7.14.94.21.29,1.44.34.02.88.28.72,1.03.4,1.08.45.29.26,0,1.1.1,1.42.52,1.61,1.67,3.47,1.95,5.27l1.58,2.44c.24-.79-.5-1.44-.52-2.06-.14-4.4-2.49-11.82-4.29-16.01-1.14-2.66-1.03-.99-2.38-1.48-2.4-.86-2.15-4.23-2.69-6.28-1.44-5.49-4.14-11.31-4.79-16.79-.33-2.81-.76-5.69-.97-8.29-.09-1.17.13-2.05-.45-3.19.29.05.79-.18.83.17.27,2.35.65,4.69.55,7.04,2.02.35,1.34-3.06,1.5-3.33.23-.38,1.13-.43,1.23-.59.3-.49.06-5.14-.02-6.11-.07-.87-.63-1.93-.68-2.63-.09-1.26.67-3.5-.64-4.54-.36.37-.67,1.7-.49,2.09.21.44.81.22.76.68-.94-.11-1.68-.51-1.89.75,0,.06.22,1.15.26,1.29.06.22.41.13.45.33.17.84-.02,1.85.19,2.66.1.41,1.85,1.41-.11,1.36-.33-1.21-.3-3.49-1.94-3.05l.28,2.22c-.37.07-.66-.08-.76-.45-.17-.61,0-2.96-.07-3.71,1.1-.25.24,2.23,1.39,1.52-.39-1.63-.22-4.36-1.1-5.78-.15-.24-.54-.17-.56-.19l-.03-.02h0ZM77.27,84.34c-1.12-.31-.27,1.75,0,2.04.22.25.61.14.75.26.26.24.31.62.66.88.53.4,1.58.98,2.22,1.25-.55-.39-2.7-3.6-3.04-3.32-.11.09.21.65-.29.54l-.28-1.66h-.02ZM119.81,87.58c-.43-.37-.9-1.29-1.62-1.57-.33-.13-.56.08-.41.41.13.3,2.05,2.89,2.36,3.19.55.54,1.53.97,2.09,1.52,2.24,2.19,4.16,4.78,7.2,5.97-.82-1.17-2.04-1.92-3.06-2.9-2.25-2.18-4.22-4.63-6.56-6.62ZM50.35,90.72c-.68-.08-.45,0-.59.4-.35.99.65,1.76.03,2.79l.56-.14c.09.4-.44,1.1-.27,1.39,0,.02.35-.18.55-.09.48.23.81.71,1.39.64.19-.19-2.08-4.17-1.66-4.99h0ZM139.98,97.66c-2.7-1.93-3.63-4.59-6.86-5.76-.47-.17-.93-.4-1.46-.34,1.55,3.7,4.76,4.72,7.91,6.65.46.18.51-.24.41-.55.75.54,1.88,1.69,2.77,1.25-.49-.78-1.6-1.32-2.14-1.89-.45-.47-1.51-2.16-2.11-2.61-.3-.22-1.41-.52-1.86-.64.67.88,3.04,2.95,3.33,3.88h0ZM83.37,98.21c-1.4-2.3-2.51-4.29-4.58-6.1-1.33,1.34,1.15,1.83,1.25,1.94.11.11-.37.72-.16,1.11.17.32.73.4.9.64.71,1,.77,2.3,2.59,2.4h0ZM86.14,92.4c-.81-.62-.5.48.14,1.11,1.45,1.44,3.51,2.88,5.14,4.15-.7-2.25-3.2-3.51-5.05-4.74-.3-.2-.2-.51-.22-.53h0ZM128.14,98.12c-1.47-1.32-2.29-2.67-4.2-3.71-.18-.1-1.08-.66-.89.06.26.61,3.2,3.55,3.04,3.74-.09.11-.66-.21-.55.28,1.78,1.1,2.66,3.8,3.87,5.63.2.31.69.36.97.77.5.74.99,2.45,1.63,3.23.26.31,3.25,2.87,3.51,2.59-.05-2.09.93-3.61,1.38-5.53-.39-.08-.78-.19-1.09-.44-2.61-2.08-5.17-4.36-7.68-6.61h0ZM128.6,104.04l-4.15-6.25c-2.12-1.13-4.09-2.73-6.39-3.46,1.04,1.13,2,2.36,3.06,3.46.85.88,2.5,2.74,3.41,3.39.38.27,1.36.42,1.86.64l-.83.55,1.94.28-.55,1.1,1.66.28h0ZM142.92,96.39c-.68-.29-1.42-.71-1.98-.94-.13-.05-.45-.07-.41.13.63.76,4.83,4.98,5.4,4.86,1.28-.27-.17-1.34-.23-1.45-.26-.45-.65-1.67-.8-1.82-.41-.41-1.26-.19-1.67-.36-.24-.1-.25-.39-.32-.42h.01ZM55.07,104.87c-.09-1.08-2.4-8.03-2.91-8.03-.68,0-.82.56-.42,1.09-.78.33-.38-.82-.97-.55-1.1.51.52,2.95.97,1.11h.27c-.06.63.66,1.11.76,1.57.36,1.6.82,2.46,1.67,4.2.18.37-.18.76.63.61ZM147.86,99.77c-.59-1.09-.57-2.5-2.33-2.39-.36.35,3.16,4.66,3.33,4.44.17-.84-.7-1.51-.99-2.05h0ZM137.36,102.23c-.79-.48-1.86-.91-2.61-1.41-1.91-1.27-3.37-3.18-5.86-3.15.19.94,1.12,1.12,1.72,1.66,1.06.96,2.04,2.13,3.14,3.04.95.79,2.48,1.32,2.93,2.49.15.11,1.53-1.11,1.59-1.27.32-.84-.25-.96-.91-1.36h0ZM52.02,99.88l-.76.69c-.27,1.39.46,2.41.49,3.75-2.11-.72-1.14-2.57-2.08-3.88-.41,1.11-1.28,2.33-1.63,3.39-.82,2.45.43,8.87,1.34,11.33.24.65.71.56.92,1.01.39.81,1.49,4.52,1.7,5.53.4,1.93-.09,5.74,1.35,7.04.36.33,1.61,1.02,2.1,1.03,1.55,0,.3-1.48.2-2.01-.68-3.51-1.59-7.12-1.3-10.77.03-.34.4-.69.39-.88-.02-.29-.64-.5-.68-.83-.02-.16.21-2.57.25-3.06,0-.12.45-.1.49-.32.1-.52-.27-1.86-.15-2.45.07-.33.6-.5.43-.97l-.83.28c.59-1.13-.41-1.78-.54-2.16-.39-1.14-.27-2.4-.82-3.89-.35-.93-.89-1.82-.86-2.84h0ZM143.58,103.77c.09-.12.43-1.71-.18-1.9-1.24-.39-1.59.46-2.59.8.45,1.07,1.49.51,2.06.55.13,0,.28,1.11.72.56h-.01ZM138.59,106.26c.39.35,2.92-1.38,3.32-1.8-.23-.67-2.68-1.46-2.34-.42.04.13.42.25.29.55-.11.25-1.67,1.31-1.27,1.66h0ZM143.02,105.15c-1.01-.13-.91,1.14-1.13,1.47-.2.32-1.38,2.07-1.48,2.15-.24.19-1,.58-.99-.02,1.08-.02.72-1.07,1.02-1.6.22-.39.99-1.01,1.19-1.59-.16-.41-1.67.81-1.78.97s.13.52.1.54c-.19.12-.77-.09-1.4.41-.54.43-2.8,3.61-2.42,4.27.11.19,3.24,2.49,3.45,2.52.67.1.7-1.02.98-1.46.86-1.35.86-2.37,1.21-2.95.17-.27.67-.28,1-.95.5-1.01.68-2.71.25-3.77h0ZM147.47,105.99c-.45.2-3.21-.73-2.49.27.02.02.38-.03.55.2.89,1.27,1.57,2.9,2.77,3.96l-.83-4.44h0ZM137.09,113.31c-.32-.21-.56-.48-1-.39.02.22-.05.5,0,.69s2.68,2.64,2.92,2.63c.34,0,.6-1.05.38-1.35-.06-.09-.64-.16-.89-.35-.45-.34-1.08-1.03-1.41-1.24h0ZM138.51,116.33l-3.25-2.57-5,16.65c3.07.05,1.48-2.56,1.66-2.77.63-.74.77,1.33.83,1.38,1.23-.29,2.24-1.66,2.65-2.77.13-.35-.17-.74-.02-1.11.3-.7,1.86-1.58,2.23-3.05.24-.93.03-2.25.2-2.85.27-.94,1.48-1.69.68-2.91h.02Z"/>
    <path d="M96.69,18.03l-3.61,2.21c2.1-.28,4.42-.59,6.53-.57,4.59.05,12.2.8,15.97,3.46.18.12.96.27.52.72-.11.11-2.17-1.12-2.7-1.32-6.17-2.3-13.92-3.01-20.45-2-.63.1-1.28.49-1.54,1.09,1.45.27,2.95-.3,4.3-.3,2.05,0,4.09,1.11,6.24.31l-.28.55c3.89.66,7.54,2.39,11.16,3.91,1.9.8,4.02,1.76,6.04,2.62,7.71,3.27,12.75,11.05,21.09,12.89l.14-.83c1.72,2.05,4.53,1.96,6.94,2.5l.13-.69-4.98-5.28c-2.13.36-4.19,1.21-6.39.97-.06-.52.55-.16.92-.28.24-.08.18-.53.31-.52.27.02.63.31,1.12.27.98-.08,2.23-.87,3.48-.72.46-.36.14-.3,0-.57-.26-.51-1.21-1.64-1.69-1.93-1.11-.67-1.14-.6-2.21-1.4-1.22-.91-5.46-1.49-7.08-1.55-.54-.02-1.06.32-1.36.3-.15,0-.14-.4-.25-.46-.34-.18-.82.09-.74-.37.97.04,1.95.21,2.91.27.47.03.7-.25.41-.54-.08-.09-1.7-.67-2.2-1-1.11-.74-2.06-1.76-3.09-2.46-3.55-2.38-7.55-4.71-11.56-6.19l-.34-.9c.16-.21,4.02,2.22,4.72,2.38.53.13.93-.16,1.37-.02.56.17,3.91,3.02,4.84,3.63,3.74,2.49,6.89,4.05,11.07,5.72.27.11.85.44,1.03.08-2.32-2.09-5.26-3.27-7.87-4.9-.28-.18-.85-.57-.05-.51,1.95.99,3.94,1.94,5.8,3.1.86.53,2.41,2.08,3.3,2.51.69.33,1.65.44,2.42.5.18.45-1.5.13-.83.83.42.43,1.83-.22,1.94.56l-1.11.42c1.43,1.44,2.88,2.3,4.99,1.67-1.28-.88-1.79-2.43-3.6-2.09-.11-.45,1-.13.55-.83-.04-.07-1.31.24-1.66,0-.12-.44.36-.16.47-.35.16-.28.04-.7.08-.76.06-.08,1.17.65,1.87.76,1.64.25,3.6.27,5.21.07.29-.04.68.24.85.21.35-.06.35-.72.4-.77.09-.07.57.51.98.56.45.06.91-.23,1.32-.18,1.11.12,2.17.56,3.24.45-.41,1.09-3.35-.2-3.88.28-.03.74,1.13,2.16,1.81,2.22,1.4-.37,5.94-.4,6.51-1.81l-.55-.41c.58.14,1.28-.25,1.77-.21.89.09.68,1.11,1.42-.35l.13.55c1.69.2,2.42-1.56,3.89-1.25l-1.11.97c1.83.44,3.74-.49,5.55-.83.13.75-.13.48-.6.63-2.83.89-5.15.65-7.68,1.21-.92.2-1.68.84-2.53,1.07-2.08.56-4.56.68-6.52,1.8l.14-.7c.05-.23-.53-.16-.55-.13-.39.45,1.98,3.96,1.38,4.99l-1.69-3.86c-.6.33-3.19.14-3.31.26-.49.51.44.78.55,1.11l-1.94-.83c.98,1.06,3.72,5.42,4.9,5.74.5.14,1.93-.2,2.6.08l-.83-1.25c.64-.41.83.83,1.67,1.09.58.18,1.06.22,1.66.16l-1.11.41c1.04,2.03,2.67,3.61,4.16,5.27,1.45,1.62,2.97,3.65,5.08,4.63,1.02.47,2.21.58,3.16,1.01,4.38,1.96,9.48,5.24,13.96,6.57,4.4,1.3,15.02,1.68,18.06,3.87.15.11,1.01.31.52.72-.2.17-4.13-1.35-4.98-1.53-5.76-1.27-11.27-1.65-17.09-2.06-9.43-.67-20.23-4.44-29.61-6.69-.13-.03-.79-1.04-1.87-.53,1.51,1.62,2.19,4.07,4.38,4.92,1.02.39,2.43.87,3.33,1.16,7.49,2.43,15.85,2.93,23.64,3.91.17-1.27-3.07-.23-2.36-1.38,2.15.65,4.42.9,6.59,1.46,2.96.75,6.74,1.65,8.26,4.51.02.86-.29.18-.5-.06-1.95-2.15-4.9-3.59-7.82-3.69.05.45.47.2.72.8.63,1.51-1.13-.29-1.27-.35-.16-.08-3.14-.66-3.5-.71-1.8-.23-3.67.19-5.38-.58-.14.79.19.46.61.63.94.38,1.97.73,3,.76.06.49-.63.27-.93.24-.6-.06-1.73-.29-2.28-.5-2.59-1.01-1.97-.94-4.94-1.44-5.58-.93-11.15-2-16.11-3.84-.72-.27-1.37-.62-2.09-.85,2.23,2.58,4.03,5.08,5.56,8.12.38.76.34,1.21.71,1.84.6,1.03,2.61,1.97,2.48,3.07-.42-.19-2.35-1.66-2.5-1.66-.93.04.37,1.8-.55,1.66-.74-.5-.38-1.69-.6-2.22-.05-.13-1.34-2.17-1.49-2.36-1.91-2.48-5.31-4.61-7.49-6.94l.13-.41c1.14.95,2.49,1.84,3.62,2.78.43.36,1.03.84,1.43,1.2.95.84,2.09,2.21,2.87,3.23.57.03.18-.79.06-1.03-.84-1.74-4.69-7.46-6.18-8.53-1.74-1.26-4.38-1.61-5.81-3.34.19-.38.73-.02.99.12,1.01.55,1.93,1.14,2.83,1.67.32.19,2.03,1.12,1.45-.13-.11-.25-.62-.32-.75-.5-1.22-1.73-1.67-1.58-2.81-2.73-.04-.04.14-.57-.16-1.07-.71-1.2-1.88-2.28-2.39-3.6,1.83,1.25,2.82,3.27,4.29,4.87,6.64,1.47,13.2,3.36,19.8,5.03,4.24,1.07,8.47,2.37,12.94,2.6.32.02,1.54.19,1.54-.29-3.87-.69-7.59-1.9-11.36-2.93-3.72-1.01-7.54-1.83-11.1-3.11-1.93-.69-4.29-1.2-5.56-2.85.91-.31,1.26.65,1.61.81,5.62,2.52,12.53,3.55,18.34,5.17.98.27,1.51.67,2.8.83.29.04.89.39.83-.14-1.35-.19-8.49-4.42-9.15-3.89l.97,1.38c-1.56-.87-3.06-2.46-4.67-3.1-7.74-3.1-13.49-4.47-20.81-9.16-2.99-1.91-2.83-1.88-6.21-3.22-6.91-2.75-11.31-8.21-17.7-11.71-.58.66,1.25,1.18,1.77,1.56.63.47,1.09,1.02,1.63,1.49.49.43,1.69.35,1.04,1.67-2.9-2.7-7.4-5.87-11.18-7.14-.4-.13-1.04,0-1.17-.08-.05-.03.46-.47-.28-.95-2.26-1.45-9.78-4.27-12.35-4.07-1.18.1-1.52.86-2.62.85l1.11-1.11c-2.58-.49-5.24-.04-7.82.3l-2.67,3.21-1.99,3.42c-.39-1.48.44-1.68.95-2.51.77-1.25,1.35-2.7,2.65-3.46.47-.93-2.1.18-2.22-.27,1.08-1.41,3.34.15,3.88-2.08-1.13.52-3.46.29-4.44.97-.58.41.48.71.28,1.25-1.46.24-3.03.6-4.3,1.39-.24.04-.16-.53-.14-.55.26-.27,3.27-.89,3.88-1.12l-.55-1.38c1.93-.46,4.31-.58,6.17-1.19,1.6-.53,3.11-2.14,4.93-2.14v.06s-.01,0-.01,0ZM151.91,35.78c.26-.38-.84-2.08-1.28-2.16-.68.25-5.67.17-5.65.91,1.78,2.34,4.39,1.69,6.93,1.25ZM152.46,36.34l-4.71.69c.41.58,4.22.32,4.52.15.3-.18.27-.74.19-.84ZM147.19,36.62c-.81.52-1.59.11-2.44.19-.28.03-.69-.02-.6.36,1.86,1.09,3.92,2.82,5.55,4.3.84.76,1.2,2.18,2.49,2.08.32-.25-4.82-5.9-5.23-6.14l.23-.8h0ZM147.91,40.9c-1.45-1.33-3-2.58-4.6-3.72-.1.44.17.68.39,1,.43.63,3.55,3.78,4.19,4.27.67.51,1.23.88,2.08.55.12-.14-1.8-1.86-2.06-2.1h0ZM156.23,48.67c-1.84-1.56-3.66-3.04-5.42-4.71l-8.06-.68,2.69,1.89c4.28,2.66,8.93,4.54,13.68,6.15-.89-.95-1.9-1.82-2.89-2.66h0ZM153.67,45.12c-.37-.32-.59-1.46-1.48-.88,1.63,2.05,3.7,3.3,5.68,4.86.99.78,1.87,2.14,3.2,2.49.7-.72-3.5-3.2-3.86-3.49-1.19-.97-2.38-1.98-3.54-2.98h0ZM156.84,44.17c-.33-.19-3.67-.31-2.99.49l6.66,5c-.76-.7-3.19-5.21-3.66-5.49h0ZM163.56,52.71c-.24-1-1.17-1.17-1.94-1.66-.24,1.36.75,1.73,1.94,1.66Z"/>
    <path d="M121.28,111.11c1.27.51,3.49.44,4.91,1.04.39.16.39.63.68.77.76.35,1.98.57,2.84.56-.6,1.43-3.43.11-4.16.83-.53.52,1.46,1,1.11,1.66-.73.49-2.95-1.24-3.05-1.11-.63.82,1.18,1.1,1.38,1.53l-.97.14c.28,1.54-1.01-.56-1.8-.56v-.4l.83-.98c-.4.06-2.13-.64-2.22-.56-.58.57.7.45.55.83l-1.39.28c.54-1.37-.48-.14-.97.56-.3-.55-.15-1.29-1.11-1.11-.29.06-.16,2.49-.84.28-.29.74-.74.8-1.53.84.38,1,1.65,0,2.5.28l-1.66.55.55.55c-.51.41-2.15-.23-2.2-.69,0-.15.57-.65.55-1.11,0-.14-.5-.09-.56-.34-.05-.18-.2-1.81-.69-1.74-1.32.18.17,1.14-.84,1.94l-.14-1.11c-1.62-.68-1.83,3.25-2.36.28-.48.24-1.08,1.79-1.26,1.94-.73.63-.31-1.26-.55-1.38-.48-.37-1.51,2.17-1.25,0l-1.8,1.39,1.11-1.94c-.86.1-2.95-.06-3.33-.98-.17-.42.21-.49.53-.53,1.08-.12,2.11.55,2.83.54,1.5-.04,5.01-1.1,6.87-1.38,1.4-.21,4.82-.13,6.08-.62.72-.28-.24-.87,1.34-.24h.02Z"/>
    <path d="M166.15,71.48c1.46,1.56,2.69,2.65,3.89,4.57,2.29,3.66,3.49,9.14,6.93,11.8.72.55,2.13.87,2.68,1.76l-1.66-.55-.14,1.11c-1.94-2.73-4.84-3.65-7.41-5.55-2.73-2.02-5.45-5.54-7.12-8.55-.38-.69-.46-1.71-.85-2.42-.36-.67-.91-.82-1.21-1.31-.18-.3-.81-2.33.08-1.58.15.12.03.99.08,1.05,1.34,1.72,1.41,1.68,2.31,3.67,1.32,2.91,4.72,6.57,7.19,8.59.99.81,2.22,1.36,3.18,2.23l-4.84-10c-.5-.59-.86-1.42-1.27-2-1.24-1.75-5.73-5.43-6.22-6.61-.11-.27-.34-.92-.02-1.09,1.17,1.89,2.88,3.28,4.4,4.9v-.02h0Z"/>
    <path d="M67.56,26.63c-.26.35.58,1.68-.7,1.39-1.08-.24-.72-1.31-1.04-1.61-.17-.16-.59.08-.77-.24-.24-.42-.02-1.31-.13-1.78-.09-.39-.58-.7-.67-1.24-.82-4.47.37-8.76,2.58-12.65.88-1.55,2.56-4.01,4.34-4.4-.33.94-1.97,1.72-2.41,2.28-3.46,4.41-4.04,11.81-1.54,16.79.21.42,1.14,1.14.89,1.47-.05.06-.51-.06-.55,0l-2.49-4.44c-.62.81,1.84,6.04,2.49,4.44h0Z"/>
    <path d="M87.81,129.29c-.17,1.77-.43,3.74-1.66,5.13.91.17,1.11.97,1.39,1.24.07.07,1.06-.81.83-1.1-.05-.06-1.43-.43-.83-1.11.07-.08,1.79.42,2.05.58.79.51.96,2.07,1.99,2.2.11,0,1.5-.04,1.65-.07.17-.03.1-.41.31-.47.23-.07.95.39,1.36-.3.18-.3-.28-.86.27-1.1.99.28,1.56.7,2.63.28.15,1.63-1.65,1.31-1.95,1.54-.58.45-.22,1.52-1.38,1.24l.84.69c0,.11-1.8.92-1.38,1.51.05.06.52.02.73.41.14.28-.14,1.2-.19,1.54l-.27-.83-.97.83c-.58-.67-2.29-.26-2.02-1.47.12-.53,1.07-.67-.35-1.03.83-1.53,3.22,1.18,3.05-1.1-1.11.29-2.11.02-2.91-.83-.33.16.09.68-.41.55-.02-.68-.49-.88-1.11-.84.67-.47-.54-1.01-.97-1-.72,0-1.36.96-2.46-.44-1.19-1.52-.27-2.58.55-4.08.1-.19.52-.24.59-.36.34-.56-.44-1.82.62-1.6h0ZM93.33,139.59c-.35-.47-1.51-.85-1.37.39.07.59.63.74,1.12.97-.15-.36.29-1.3.25-1.36h0Z"/>
    <path d="M98.08,29.96c.06.52-.56.21-.84.15-1.03-.19-5.45-.93-6.09-.43s.72.49.55.83c-1.69-.57-2.4-.11-3.88.56l1.11,2.21c-.85-.36-1.31-1.94-2.37-1.13-.37.28-1.96,3-2.05,3.5-.38,2.24.64,3.84.81,5.95-.5-.29-.75-1.45-.91-2-.93-3.25-.88-3.34.62-6.23.16-.31.07-.77.18-.93.43-.59,3.03-1.7.23-2.2-1.81-.33-3.39,1.2-4.24,2.67-1.2,2.06-.39,2.04,1.06,3.42-.46.08-.8-.14-1.17-.36-.53-.32-.36-.8-.91-.74-.98,1.17-1.21,2.55-.42,3.88-1.52-.24-.95-2.08-.69-3.05.42-1.55,1.45-1.3-.42-2.77.47-.18,1.03.79,1.38.55.09-.07.78-1.58,1.13-2,1.47-1.75,2.75-2.84,5.14-1.91.49.19.98.9,1.33.84.21-.04.56-.59.93-.75,1.22-.56,2.72-1.15,4.13-1.14,1.71.02,3.7.73,5.38,1.09h.01Z"/>
    <path d="M134.6,146.04c3.37,5.75,7.28,9.36,13.46,11.93.37.15,1.26.36,1.34.73-3.58-.38-8.42-3.54-11.07-5.99-2.87-2.66-4.37-7.57-7.37-9.28-1.55-.88-2.07-.67-3.46-2.42-.19-.24-.57-.75.11-.61,1.15,1.69,2.81,2.21,4.58,3.05-.7-.91-.72-2.14-1.01-3.05-.14-.44-1.04-1-.68-2.06l-.94-2.93c1.71,1.7,1.86,4.28,2.72,6.44.6,1.52,1.54,2.89,2.31,4.21v-.02h0,0Z"/>
    <path d="M94.95,146.03c1.17.55,4.69.85,6.33.77.51-.02.36-.5.59-.57.25-.07,1.34.17,1.76-.02l-1.11.69c.3.7,1.64.54,1.38,1.11-.5,1.12-4.52-.39-5.51-.53-1.81-.26-4.01,0-5.72-.15-1.74-.14-3.41-.74-5.14-.84-.18-.92.53-.37,1.04-.64.09-.05.07-.45.25-.48.83-.12,2.74.98,3.69.99.61,0,1.35-.85,2.44-.33h0Z"/>
    <path d="M70.06,110.7c.2-.32,1.6-.62,1.64-.54.08.13-.07.56.07.75.22.3,1.17.18,1.19.9,1.11-.81,3.5-1.59,4.71-.82l1.25,1.65-1.94-.83.27,1.11c-1.24-.57-1.15.27-1.23.27-1.09-.02-2.12-2.76-1.96.56-.48-.3-.34-1.19-.87-1.36-1.18-.39-1.62,1.17-2.18-1.69l-.56,2.22c-.15-.2-.74-1.63-.83-1.67-1.28-.52-.22,1.18-.42,1.39-1.94.61-1.72-.24-1.67-1.94.99-.16,2.37.59,2.36-.83l.14.84h.03Z"/>
    <path d="M113.44,63.45c.13.14,1.09.51,1.52,1.09.23.31.28.91.32.94.05.04.69-.39.83-.28.05.04.08.72.26.94.19.24.59.11.75.26,3.64,3.37,7.92,6.88,11.22,10.36.34.36.38,1.12.74,1.49.22.22,1.23.54,1.19.68-.28.8-1.45-.44-1.63-.6-5.51-4.76-11.49-10.68-16.41-15.97-.44-.48-2.09-1.72-2.21-2.02-.18-.45.15-.54.56-.28,1.22.78,2,2.44,2.87,3.39h0Z"/>
    <path d="M127.97,145.46c.23.26.19.72.43.96,4.11,4.02,9.51,6.37,14.05,9.95,1.07.85,2.2,1.6,2.8,2.89-.51.42-2.36-1.72-2.8-2.06-5.17-3.97-10.51-6.1-14.78-11.16-.18-.21-.61-.28-.73-.51-.17-.8.87-.26,1.04-.06h0Z"/>
    <path d="M90.13,77.03c4.11,4.6,10.29,6.11,15.52,9.04.36.2,2.85,1.73,2.42,2.15-.19.18-4.04-2.18-4.61-2.46-5.63-2.75-11.33-4.94-15.04-10.21-.24-.34-.96-1.34-.74-1.75,1.01.93,1.55,2.22,2.46,3.23,0,0-.01,0,0,0Z"/>
    <path d="M89.48,150.1c.06.05.38,0,.55,0l-.28-.83c.56.26,2.7.61,3.19.5.16-.04.14-.42.35-.47.75-.17,1.51-.34,2.29-.3l-1.11.69,1.94.97-4.17.74c-.85.17-1.59-.97-1.79.09-.4-.33-.7-.81-1.12-1.11-.32-.23-1.56-.83-1.79-1.11-.86-1.02,1.34-.06,1.65.17.28.21.26.64.3.66h-.01Z"/>
    <path d="M113.48.83c-.32.02-.98.51-1.53.27-.47-.35,2.07-.8,2.36-.82C117.47,0,120.74.56,123.88,0c-.54.34-.22,1.08-.28,1.1-.11.06-.82-.21-1.17-.21-2.26,0-3.22.36-5.27.85-.96.23-3.11,1.13-3.55.2l1.4-.13,2.49-.98c-1.33.06-2.69-.09-4.02,0Z"/>
    <path d="M84.59,71.48c.56.98,1.68,2.36,2.48,3.22l1.85,2.98c-1.73-.57-1.45-3.06-3.5-3.24-.35-.03-1.02.31-1.2.19-.05-.04-.19-.88-.35-1.18-.17-.32-.7-.74-.71-.89-.02-.36.76-.84.65-1.27-.17-.7-1.62-1.03-1.27-2.2l.83.28.28-1.11c-.2,1.26.35,2.19.94,3.23h0Z"/>
    <path d="M51.74,11.09c-.06,2.33.4,4.94,1.44,7.02,1.27,2.56,3.46,4.04,5.64,5.74,1.57,1.22.05.77-.79.24-3.6-2.26-5.96-5.65-6.82-9.83-.07-.33-.41-4.34.53-3.17h0Z"/>
    <path d="M95.3,4.44l-9.45,3.45c-6.73,3.75-12.94,9.45-15.61,16.85l-.74,3.83c-.53-4.62,2.54-9.15,5.39-12.51,2.65-3.12,6.98-6.65,10.83-8.59,3-1.51,6.24-2.59,9.58-3.04h0Z"/>
    <path d="M98.8,136.97c-.18.32-1.14.87-1.42,1.2.05-.74-.62-.8-.7-.97-.19-.42.68-.29,1.11-.83,1.47-1.84.34-2.72.3-4.47,0-.24.66.08.53-.39-.18,0-.49.09-.51-.13-.03-.42.28-2.26.2-2.35-.09-.11-.46.12-.53-.16-.02-.08.72-.36.7-.7.4,3.18,2.1,5.64.31,8.79h.01Z"/>
    <path d="M108.9,3.6c-.53.62-1.64,1-2.4,1.34-1.67.75-5.31,2.57-6.88,2.85-.43.08-.63.37-.98-.18l3.38-2.17c1.48-.18,2.9-.47,4.31-.96.86-.3,1.43-1.21,2.58-.89h-.01,0Z"/>
    <path d="M71.72,24.96c.37-1.54,2.5-3.16,3.62-4.29,5.5-5.55,10.91-9.44,17.38-13.13,1.09-.62,2.33-2.28,3.69-1.72-.22-1.35.46-.62,1.23-.85.55-.16.91-.65,1.54-.54l-.56.42.55.69-1.38.28.15-.54c-.92.24-1.63.98-2.65.83l.28.55c-.18,0-.45-.05-.6.04-7.99,4.68-16.21,10.21-22.44,17.37-.45.52.18.43-.83.91-.18.78-.11,1.74-.42,2.5-1.37-1.22-1.08-1.78.42-2.5l.02-.02h0Z"/>
    <path d="M175.21,28.57l-2.76,1.26c-3.97.48-7.76,1.67-11.67,2.34.28-.54,1.33-.88,1.88-1.03,3.35-.92,7.44-1.13,10.69-2.03.15-.04.74-1.04,1.86-.54h0Z"/>
    <path d="M84.94,48.65c1.19,1.02,2.82,3.93,3.98,5.32,3.06,3.68,6.73,6.79,10.68,9.58l2.36,2.49c-.43.08-.69-.17-1-.39-2.82-1.94-8.05-6.41-10.36-8.9-2.09-2.25-3.63-4.93-5.56-7.21-.44-.52-.95-1.13-1.66-1.26.12-.74,1.33.18,1.56.38h0Z"/>
    <path d="M141.83,56.42c.44.28,1.13.67,1.46.89,1.38.96,2.68,2.24,3.9,3.45-.5.1-.77-.15-1.15-.37-1.53-.87-3.47-2.7-5.1-3.78-1.38-.91-3.16-1.69-4.29-2.78.43-.34,4.48,2.14,5.18,2.59h0Z"/>
    <path d="M87.26,145.94c-.78.77-3.22,1.05-4.3,1.05-.82,0-2.61-.28-1.77-1.29.42-.51,5.11.16,6.07.24h0Z"/>
    <path d="M142.16,63.3c.09.08-.05.57.08.72.2.22.9.13,1.18.32.29.2.09.67.19.83.02.03.4-.18.67,0,.48.33.67,1.04,1.11,1.42.74.66,1.96.5,1.52,2.21-.06.07-1.07-.24-1.11-.28-.54-.6.69-.43.55-.83-.51.04-1.65-.62-1.94-.98-.75-.95.22-.49-1.25-1.51-.33-.23-1.99-1.31-2.07-1.41-.03-.03-.1-.58.14-.55.28.05.78-.1.94.05h0Z"/>
    <path d="M83.93,60.2c-1.35.22-1.73-1.69-1.87-2.7-.28-2.06.22-3.87.21-5.89.62.15.42.45.43.83.08,2.63-.6,5.61,1.23,7.76h0Z"/>
    <path d="M90.86,12.76c-.23.91-1.4.85-1.86,1.19-.38.28-1.23,1.13-1.81,1.6-.92.74-1.51,2.25-2.99,2.2,2.14-1.75,3.9-4.28,6.66-4.99h0Z"/>
    <path d="M144.14,55.21c.15.17.11.68-.4.54-.49-.14-1.96-1.22-2.59-1.58-1.11-.64-2.41-.78-3.12-2.29l6.1,3.33h0Z"/>
    <path d="M123.6,117.64c-1.78-.76-.19.77-.28.83-1.07.46-1.68-.81-1.79-.8-.37.03-1.49.66-.99-.44.22-.49,1.31-.13,1.25-1.25l1.8,1.66h0Z"/>
    <path d="M140.16,88.61c.47.47.57.6,1.19,1.15.75.67,1.58,1.31,2.23,2.07-.48.05-.68.05-1.11-.19-.24-.14-2.66-2.27-2.94-2.57-.49-.53-.14-1.38-1.23-1.13-.03-1.48,1.47.28,1.85.66h0Z"/>
    <path d="M69.71,31.16c.08.03.6.77,1.45.47-.88.99-2.86-.04-4.3-.02-1.08.01-1.9.38-2.91.57.16-.6.82-.46,1.29-.66.09-.04.1-.4.29-.44.2-.05,3.98.01,4.18.09h0Z"/>
    <path d="M97.52,57.43l-4.99-4.44c.68.26,1.62.84,2.2,1.26.96.69,2.75,1.94,2.79,3.17h0Z"/>
    <path d="M126.38,201.44s-.61-.03-.83,0c.45-1.09-.51-1.45-.55-1.57-.43-1.42,1.97-1.65,1.81.04,0,.08-.37,1.48-.43,1.53h0Z"/>
    <path d="M114.73,117.09c-1.3,2.19.04.89.42,1.37.7.9-.04,2.5-.49,1.33-.19-.5.42-1.15-.34-1.04l-.97,1.39c.14-.34-.09-2.42.02-2.47.13-.07.46.04.58-.04.36-.27.09-.71.78-.54h0Z"/>
    <polygon points="126.55 35.61 128.87 38.56 125.13 35.23 125.41 34.4 126.55 35.61"/>
    <path d="M110.01,103.76s.49-1.15.53-1.2c.24-.27.65-.18.84-.34.25-.21,1.11-2.38,1.95-1.37-.72.49-2.3,3.66-3.32,2.91h0Z"/>
    <path d="M157.95,109.95c.12.06,1.77,1.34,2.07,1.58.34.27,2.73,2.46,2.43,2.78l-5.27-4.44c.27,0,.52-.06.77.08h0Z"/>
    <path d="M77.27,178.13l-.27,1.94,1.11-.27c.09.07-1.34,1.3-.83,1.93.12.15,1.07-.36.82.56-1.74.24-.87-.4-1.12-1.47-.04-.17-.41-.13-.57-.6-.27-.76-.3-2.04.86-2.09h0Z"/>
    <path d="M65.34,69.91c-.87.87,2.34,3.07.97,3.33-.65.12-1.59-2.56-2.35-2.64l1.11-.14.27-.55h0Z"/>
    <path d="M58.78,21.27s.96.2.45.64c-.27.23-.64-.23-.83-.42-.98-1.02-1.77-2.91-2.78-4.02.65-.62,2.89,3.38,3.15,3.8,0,0,0,0,0,0Z"/>
    <path d="M51.18,137.62c-.86.14-.43-.24-.55-.68-.52-1.87-1.28-3.83-1.38-5.7l1.64,4.6.3,1.78h0Z"/>
    <path d="M66.08,109.69c.06.03.08.29.2.36.43.26,1.22-.07.59,1.22-.42.86-.51-.5-.84-.84l-1.25,1.39c.34-1.07-.23-2.75,1.3-2.12h0Z"/>
    <path d="M65.06,108.76c-.69,1.88-1.98,2.71-1.67,0l-.55-.27,2.22.28h0Z"/>
    <path d="M117.9,118.05c.73.8.89,2.01,1.54,2.91-.53.5-2.42-2.46-1.94-3.19.27-.43.26.12.4.27h0Z"/>
    <path d="M95.86,74.63c-1.58.64-.83-.71-1.18-1.32-.11-.19-1.34-.92-1.32-1.73.44-.44,2.35,2.65,2.5,3.05h0Z"/>
    <path d="M67.55,48.27c-.6-.06-.08-1.46.02-1.78.3-.94.88-2.71,1.64-3.21l-1.67,4.99h.01Z"/>
    <path d="M112.22,120.41c-.08.07-.88.26-.81-.4.07-.69.4-2.06,1.09-2.38.08.43-.12,2.63-.28,2.77h0Z"/>
    <path d="M112.5,115.98l-.83.83c.53.21,2.42-.53,2.22.56l-3.33-.56c.26-1.17.9-.83,1.94-.83h0Z"/>
    <path d="M64.23,70.19c-.24.28-1-.64-1.09-.77-.36-.53-.86-1.34-.85-2,.51.22,2.21,2.46,1.94,2.77Z"/>
    <path d="M41.2,115.42c-.79.13-.46-.16-.59-.64-.3-1.09-.44-2.39-.51-3.52.41-.07.35.52.42.83.24,1.1.42,2.23.69,3.33,0,0,0,0,0,0Z"/>
    <path d="M72.03,51.83c.12.11.67-.35.8-.23-1.03,1.49,1.31,1.14.55,2.49l-1.65-1.87c-.52-.39.09-1.05.26-.9.05.05-.05.42.03.5h0Z"/>
    <path d="M38.42,90.72c-.77.82-1.55-3.41-1.11-3.88l1.11,3.88Z"/>
    <path d="M85.59,45.22c-.07.07-.58-.43-1.1-.16-.76.39-.46,1.67-1.39,1.54-.03-1.29,2.09-3.35,2.49-1.38h0Z"/>
    <path d="M106.5,182.75c.09.17.49,0,.46.47,0,.17-.22.99-.28,1.12-.52.99-.53-.57-.59-.62-.23-.21-.89.21-.8-.32l.83-1.39c.46-.08.19.41.37.74h0Z"/>
    <path d="M62.56,24.97c.26,1.4-3.45,0-2.77-.56.16-.13,2.19.87,2.77.56Z"/>
    <path d="M46.25,52.2c-.12.17.47,2.04-.34,2.18-.19-1.36.14-2.36.56-3.61,1.29.98-.02,1.16-.22,1.43Z"/>
    <path d="M98.35,7.49c-.56,1.05-1.45,2.08-2.77,1.94,0,0,2.77-1.94,2.77-1.94Z"/>
    <path d="M63.39,28.85c-.6.6-.75,1.11-1.08,1.82-.22.46-.51.68-.86.4-.49-.4.44-.57.54-.76.31-.6-.04-1.63,1.4-1.45h0Z"/>
    <path d="M60.4,82.08c.36.36,1.48,1.15,2.05,1.69s.03,1.11,1.22.58c-.76,1.55,2.16,1.76,2.5,3.05-.22.2-1.93-.8-2.19-1-.83-.63-1.69-1.85-2.23-2.46-.77-.86-2.03-1.75-1.95-2.92.8.1.56,1.02.61,1.07h0Z"/>
    <path d="M61.17,88.79c.21.14.62,1.02.33,1.32.63.62,1.86,2.17,1.33,3.11l-1.88-2.97c-.3-.43-.59-2,.21-1.46h0Z"/>
    <path d="M49.8,103.21c1.43.8-.57,3.01-.7,4.02-.1.82.88,2.51-.27,2.64-.57-.12-.52-2.65-.41-3.18.15-.76,1.7-2.16,1.38-3.47h0Z"/>
    <path d="M53.12,113.48c-.68-.53-1.24-1.82-1.36-2.66-.18-1.29.11-2.47.25-3.72.46-.08.31.69.29.98-.05.65-.29,1.24-.27,1.89.04,1.34.85,2.29,1.09,3.51h0Z"/>
    <path d="M137.2,117.64c.19.2-1.2,3.64-2.22,3.6-.04-.95.33-1.84.88-2.6.09-.13,1.1-1.26,1.34-1.01h0Z"/>
  </g>
  <g class="st1">
    <g class="st1">
      <g class="st1">
        <g class="st1">
          <g class="st1">
            <g class="st1">
              <path class="st0" d="M28.29,255.84l-3.68-15.49h2.43l1.67,7.67,1.06,5.05h.06l1.23-5.05,1.92-7.67h2.68l1.88,7.67,1.23,5.05h.06l1.1-5.05,1.71-7.67h2.35l-3.83,15.49h-2.71l-2.05-8.18-1.12-4.65h-.04l-1.18,4.65-2.07,8.18h-2.71Z"/>
              <path class="st0" d="M46.37,240.35h2.35v9.55c0,2.71.91,4.08,3.38,4.08s3.42-1.37,3.42-4.08v-9.55h2.35v9.17c0,4.52-1.54,6.59-5.77,6.59s-5.73-2.07-5.73-6.59v-9.17Z"/>
              <path class="st0" d="M61.65,255.84v-15.49h2.39v7.95h.08l2.24-2.81,4.27-5.14h2.81l-5.58,6.53,5.98,8.96h-2.87l-4.78-7.31-2.16,2.45v4.86h-2.39Z"/>
              <path class="st0" d="M76.1,240.35h2.35v9.55c0,2.71.91,4.08,3.38,4.08s3.42-1.37,3.42-4.08v-9.55h2.35v9.17c0,4.52-1.54,6.59-5.77,6.59s-5.73-2.07-5.73-6.59v-9.17Z"/>
              <path class="st0" d="M93.64,255.84l-3.68-15.49h2.43l1.67,7.67,1.06,5.05h.06l1.23-5.05,1.92-7.67h2.68l1.88,7.67,1.23,5.05h.06l1.1-5.05,1.71-7.67h2.35l-3.83,15.49h-2.71l-2.05-8.18-1.12-4.65h-.04l-1.18,4.65-2.07,8.18h-2.71Z"/>
              <path class="st0" d="M110.9,248.11c0-5.22,2.62-8.03,6.64-8.03s6.64,2.81,6.64,8.03-2.6,8.01-6.64,8.01-6.64-2.81-6.64-8.01ZM121.64,249.31v-2.43c0-2.89-1.63-4.67-4.08-4.67s-4.12,1.78-4.12,4.67v2.43c0,2.9,1.65,4.67,4.12,4.67s4.08-1.78,4.08-4.67Z"/>
              <path class="st0" d="M129.73,249.54v6.3h-2.39v-15.49h6.62c2.75,0,4.42,1.75,4.42,4.59,0,2.22-1.01,3.8-3,4.35l3.36,6.55h-2.66l-3.15-6.3h-3.19ZM129.73,247.51h4.06c1.29,0,2.09-.7,2.09-2.01v-1.06c0-1.31-.8-2.01-2.09-2.01h-4.06v5.07Z"/>
              <path class="st0" d="M141.82,255.84v-15.49h2.39v7.95h.08l2.24-2.81,4.27-5.14h2.81l-5.58,6.53,5.98,8.96h-2.87l-4.78-7.31-2.16,2.45v4.86h-2.39Z"/>
              <path class="st0" d="M154.75,250.26v-2.35h6.11v2.35h-6.11Z"/>
              <path class="st0" d="M167.87,254.45v-4.44h-4.16v-1.9h4.16v-4.44h2.07v4.44h4.16v1.9h-4.16v4.44h-2.07Z"/>
              <path class="st0" d="M186.8,240.35v2.07h-6.89l-.4,5.58h.17c.68-1.18,1.48-1.99,3.23-1.99,2.64,0,4.67,1.8,4.67,4.84s-2.03,5.26-5.47,5.26c-2.73,0-4.16-1.33-5.09-2.75l1.73-1.35c.76,1.21,1.58,2.09,3.36,2.09,1.94,0,2.96-1.12,2.96-2.98v-.23c0-1.84-1.04-2.92-2.92-2.92-1.35,0-2.09.61-2.66,1.27l-1.96-.3.57-8.6h8.71Z"/>
            </g>
          </g>
        </g>
      </g>
    </g>
  </g>
</svg>