<?xml version="1.0" encoding="UTF-8"?>
<svg id="_图层_1" xmlns="http://www.w3.org/2000/svg" version="1.1" viewBox="0 0 117.68 35.86">
  <!-- Generator: Adobe Illustrator 30.2.1, SVG Export Plug-In . SVG Version: 2.1.1 Build 1)  -->
  <defs>
    <style>
      .st0 {
        fill: #231815;
      }
    </style>
  </defs>
  <path class="st0" d="M2.8,24.23L0,12.14h2.18l1.24,5.91.76,3.71h.05l.87-3.71,1.44-5.91h2.41l1.43,5.91.86,3.71h.05l.78-3.71,1.27-5.91h2.1l-2.9,12.09h-2.49l-1.57-6.43-.76-3.25h-.03l-.79,3.25-1.58,6.43h-2.52Z"/>
  <path class="st0" d="M17.23,12.14h2.14v7.44c0,1.95.68,2.92,2.44,2.92s2.46-.97,2.46-2.92v-7.44h2.13v7.14c0,3.55-1.22,5.16-4.59,5.16s-4.59-1.62-4.59-5.16v-7.14s.01,0,.01,0Z"/>
  <path class="st0" d="M29.22,24.23v-12.09h2.18v6.02h.08l1.72-2.24,3.1-3.78h2.51l-4.24,5.05,4.57,7.04h-2.59l-3.51-5.53-1.63,1.91v3.61h-2.19Z"/>
  <path class="st0" d="M40.77,12.14h2.14v7.44c0,1.95.68,2.92,2.44,2.92s2.46-.97,2.46-2.92v-7.44h2.13v7.14c0,3.55-1.22,5.16-4.59,5.16s-4.59-1.62-4.59-5.16v-7.14h0Z"/>
  <path class="st0" d="M54.21,24.23l-2.49-9.02h2.05l.94,3.79.71,3.1h.07l.86-3.1,1.09-3.79h1.91l1.12,3.79.86,3.1h.07l.71-3.1.92-3.79h1.98l-2.47,9.02h-2.29l-1.19-4.06-.69-2.47h-.03l-.66,2.47-1.19,4.06h-2.28Z"/>
  <path class="st0" d="M65.95,19.71c0-2.9,1.62-4.72,4.17-4.72s4.17,1.81,4.17,4.72-1.6,4.73-4.17,4.73-4.17-1.85-4.17-4.73ZM72.09,20.54v-1.63c0-1.44-.76-2.21-1.96-2.21s-1.95.78-1.95,2.21v1.63c0,1.44.74,2.19,1.95,2.19s1.96-.76,1.96-2.19Z"/>
  <path class="st0" d="M76.31,24.23v-9.02h2.11v1.83h.08c.25-.94.99-1.83,2.42-1.83h.48v2h-.71c-1.48,0-2.28.45-2.28,1.44v5.59h-2.11.01Z"/>
  <path class="st0" d="M83.05,24.23v-12.82h2.11v7.8h.08l1.2-1.63,2.13-2.38h2.39l-3.15,3.48,3.45,5.54h-2.52l-2.38-4.11-1.2,1.32v2.79h-2.11Z"/>
  <path class="st0" d="M91.81,20.01v-2.09h4.92v2.09h-4.92Z"/>
  <path class="st0" d="M102,23.14v-3.35h-3.12v-1.72h3.12v-3.35h1.88v3.35h3.12v1.72h-3.12v3.35h-1.88Z"/>
  <path class="st0" d="M117.01,12.14v1.9h-5.43l-.26,4.12h.12c.51-1.02,1.12-1.7,2.56-1.7,2.06,0,3.68,1.42,3.68,3.81s-1.62,4.17-4.42,4.17c-2.23,0-3.38-1.07-4.12-2.23l1.58-1.22c.56.94,1.22,1.67,2.56,1.67s2.13-.84,2.13-2.19v-.17c0-1.3-.76-2.06-2.09-2.06-1.01,0-1.58.46-1.98.92l-1.78-.25.45-6.78h7.03-.03Z"/>
</svg>